<mxfile host="app.diagrams.net" modified="2022-06-04T04:10:24.229Z" agent="5.0 (Windows NT 10.0; Win64; x64) AppleWebKit/537.36 (KHTML, like Gecko) Chrome/100.0.4896.60 Safari/537.36" etag="irhke2y_e6PPwWUbeFbh" version="16.5.6" type="github">
  <diagram id="LhWJx1AWaHF-POVzKVxr" name="第 1 页">
    <mxGraphModel dx="1024" dy="699" grid="1" gridSize="10" guides="1" tooltips="1" connect="1" arrows="1" fold="1" page="1" pageScale="1" pageWidth="827" pageHeight="1169" math="0" shadow="0">
      <root>
        <mxCell id="0" />
        <mxCell id="1" parent="0" />
        <mxCell id="J3CXu3NCxWOcpsQ5JQFd-3" value="" style="ellipse;whiteSpace=wrap;html=1;" vertex="1" parent="1">
          <mxGeometry x="123.75" y="20" width="642.5" height="290" as="geometry" />
        </mxCell>
        <mxCell id="J3CXu3NCxWOcpsQ5JQFd-1" value="" style="shape=image;verticalLabelPosition=bottom;labelBackgroundColor=#ffffff;verticalAlign=top;aspect=fixed;imageAspect=0;image=data:image/svg+xml,PHN2ZyB4bWxucz0iaHR0cDovL3d3dy53My5vcmcvMjAwMC9zdmciIHhtbG5zOnhsaW5rPSJodHRwOi8vd3d3LnczLm9yZy8xOTk5L3hsaW5rIiB0PSIxNjM5NzA2MzgxNDU4IiBjbGFzcz0iaWNvbiIgdmlld0JveD0iMCAwIDEwMjQgMTAyNCIgdmVyc2lvbj0iMS4xIiBwLWlkPSIyMTA2IiB3aWR0aD0iMjUwIiBoZWlnaHQ9IjI1MCI+PGRlZnM+PHN0eWxlIHR5cGU9InRleHQvY3NzIi8+PC9kZWZzPjxwYXRoIGQ9Ik01NDAuMiAyNDQuNGMtMTIuMS0yMi41LTQ0LjMtMjIuNS01Ni40IDBMNjQuNSAxMDI0aDU5LjFjMTIuMSAwIDIzLjItNi45IDI4LjYtMTcuN2w3MS0xNDIuM2g1NzcuNmw3MSAxNDIuM2M1LjQgMTAuOSAxNi41IDE3LjcgMjguNiAxNy43aDU5LjFMNTQwLjIgMjQ0LjR6IG0tNDIuMyAxMDguOWM2LTExLjIgMjIuMS0xMS4yIDI4LjIgMEw2MjguNyA1NDRIMzk1LjNsMTAyLjYtMTkwLjd6TTM2MC45IDYwOGgxNzAuMkwyODQuMiA3NTAuNSAzNjAuOSA2MDh6IG0tMzQuNCAxOTJMNjU5IDYwOGwzLjEtMS44IDAuOSAxLjggMTAzLjMgMTkySDMyNi41ek02NjkuOSAxNDYuN2wtNTIuNiAzNi40QzYzMiAyMDQuNCA2NDAgMjI5LjYgNjQwIDI1NnMtOCA1MS42LTIyLjcgNzIuOWw1Mi42IDM2LjRjMjEuNS0zMSAzNC4xLTY4LjcgMzQuMS0xMDkuM3MtMTIuNi03OC4zLTM0LjEtMTA5LjN6IG0tMzE1LjggMGMtMjEuNSAzMS0zNC4xIDY4LjctMzQuMSAxMDkuM3MxMi42IDc4LjMgMzQuMSAxMDkuM2w1Mi42LTM2LjRDMzkyIDMwNy42IDM4NCAyODIuNCAzODQgMjU2czgtNTEuNiAyMi43LTcyLjlsLTUyLjYtMzYuNHpNNzYyLjQgODIuNkw3MDkuOCAxMTljOS4xIDEzLjMgMTYuOCAyNy40IDIzLjEgNDIuNCAxMi43IDI5LjkgMTkuMSA2MS43IDE5LjEgOTQuNiAwIDMyLjgtNi40IDY0LjYtMTkuMSA5NC42LTYuMyAxNC45LTE0IDI5LjEtMjMuMSA0Mi40bDUyLjYgMzYuNEM3OTYuMiAzODAgODE2IDMyMC4zIDgxNiAyNTZzLTE5LjgtMTI0LTUzLjYtMTczLjR6IG0tNDUyLjIgMzMuN2wtNTIuNi0zNi40QzIyMi41IDEyOS43IDIwMiAxOTAuNSAyMDIgMjU2czIwLjUgMTI2LjMgNTUuNSAxNzYuMmw1Mi42LTM2LjRjLTkuOS0xNC4xLTE4LjMtMjkuMi0yNS4xLTQ1LjItMTIuNi0zMC0xOS02MS44LTE5LTk0LjZzNi40LTY0LjcgMTkuMS05NC42YzYuNy0xNiAxNS4xLTMxLjEgMjUuMS00NS4xek04ODEuOCAwbC01Mi42IDM2LjRjMTQuNCAyMSAyNi43IDQzLjUgMzYuNyA2Ny4xIDIwIDQ3LjMgMzAuMiA5Ny42IDMwLjIgMTQ5LjVTODg2IDM1NS4xIDg2NS45IDQwMi41Yy0xMC43IDI1LjItMjMuOSA0OS0zOS41IDcxLjJMODc5IDUxMGM1MS4xLTcyLjggODEtMTYxLjQgODEtMjU3IDAtOTMuOS0yOC45LTE4MS03OC4yLTI1M3pNMTI4IDI1M2MwLTUxLjkgMTAuMS0xMDIuMiAzMC4yLTE0OS41IDEwLTIzLjcgMjIuMy00Ni4xIDM2LjctNjcuMUwxNDIuMiAwQzkyLjkgNzIgNjQgMTU5LjEgNjQgMjUzYzAgOTUuNiAzMCAxODQuMyA4MSAyNTdsNTIuNi0zNi40Yy0xNS42LTIyLjItMjguOC00Ni0zOS41LTcxLjItMjAtNDcuMy0zMC4xLTk3LjUtMzAuMS0xNDkuNHoiIHAtaWQ9IjIxMDciIGZpbGw9IiM3MDcwNzAiLz48L3N2Zz4=;" vertex="1" parent="1">
          <mxGeometry x="395" y="40" width="100" height="100" as="geometry" />
        </mxCell>
        <mxCell id="J3CXu3NCxWOcpsQ5JQFd-16" value="" style="group" vertex="1" connectable="0" parent="1">
          <mxGeometry x="180" y="200" width="150" height="50" as="geometry" />
        </mxCell>
        <mxCell id="J3CXu3NCxWOcpsQ5JQFd-12" value="" style="ellipse;whiteSpace=wrap;html=1;" vertex="1" parent="J3CXu3NCxWOcpsQ5JQFd-16">
          <mxGeometry width="150" height="50" as="geometry" />
        </mxCell>
        <mxCell id="J3CXu3NCxWOcpsQ5JQFd-13" value="" style="shape=image;verticalLabelPosition=bottom;labelBackgroundColor=#ffffff;verticalAlign=top;aspect=fixed;imageAspect=0;image=data:image/svg+xml,PHN2ZyB4bWxucz0iaHR0cDovL3d3dy53My5vcmcvMjAwMC9zdmciIHhtbG5zOnhsaW5rPSJodHRwOi8vd3d3LnczLm9yZy8xOTk5L3hsaW5rIiB0PSIxNjM5NzA3MDQ4NTEzIiBjbGFzcz0iaWNvbiIgdmlld0JveD0iMCAwIDEwMjQgMTAyNCIgdmVyc2lvbj0iMS4xIiBwLWlkPSIxNjE1NiIgd2lkdGg9IjI1MCIgaGVpZ2h0PSIyNTAiPjxkZWZzPjxzdHlsZSB0eXBlPSJ0ZXh0L2NzcyIvPjwvZGVmcz48cGF0aCBkPSJNODc2LjU0NCA1NDcuODRsMy4wNzIgMC03MzEuMTM2IDAgMC00MzQuMTc2cTAtNDMuMDA4IDIxLjUwNC02Ni4wNDh0NjUuNTM2LTIzLjA0bDU1OC4wOCAwcTQ2LjA4IDAgNjUuMDI0IDI2LjExMnQxNy45MiA2Ny4wNzJsMCA0MzAuMDh6TTgwMC43NjggOTYuMjU2bC01NzkuNTg0IDAgMCAzMjMuNTg0IDU3OS41ODQgMS4wMjQgMC0zMjQuNjA4ek01NjMuMiA0ODQuMzUycTAtMTQuMzM2LTE5LjQ1Ni0xNi4zODRsLTYyLjQ2NCAwcS0xOS40NTYgMC0xOS40NTYgMTYuMzg0IDAgNS4xMiA1LjEyIDEwLjI0dDEzLjMxMiA2LjE0NGw2MS40NC0xLjAyNHE5LjIxNiAwIDE1LjM2LTUuMTJ0Ni4xNDQtMTAuMjR6TTg1OS4xMzYgNjA2LjIwOHExMS4yNjQgMCAxNS4zNiA3LjE2OHQxMi4yODggMjAuNDhxNC4wOTYgNy4xNjggMTUuMzYgMjUuNnQyNC4wNjQgMzkuNDI0IDI0LjA2NCAzOS40MjQgMTUuMzYgMjQuNTc2cTguMTkyIDEzLjMxMiAxMy44MjQgMjUuMDg4dC03LjY4IDI4LjE2cS0yNi42MjQgMzEuNzQ0LTQ2LjA4IDM4LjkxMnQtMjkuNjk2IDcuMTY4bC0zOC45MTIgMC04OS4wODggMC0xMjEuODU2IDAtMTM4LjI0IDAtMTM3LjIxNiAwcS02Ny41ODQgMC0xMjEuMzQ0LTAuNTEydC04Ny41NTItMC41MTJsLTM4LjkxMiAwcS04LjE5MiAwLTE2Ljg5Ni00LjA5NnQtMTcuOTItMTAuNzUyLTE2Ljg5Ni0xNC4zMzYtMTMuODI0LTE0Ljg0OHEtNy4xNjgtOS4yMTYtOS4yMTYtMTYuMzg0dC0wLjUxMi0xMi44IDUuNjMyLTEwLjc1MiA4LjE5Mi0xMi4yODhxNC4wOTYtNi4xNDQgMTMuODI0LTIyLjAxNnQyMC45OTItMzUuMzI4bDI0LjU3Ni0zOC45MTJxMTEuMjY0LTE5LjQ1NiAxOS40NTYtMzIuNzY4dDEzLjgyNC0xOS45NjggMTEuNzc2LTguNzA0IDEzLjMxMi0xLjUzNiAxOC40MzIgMC41MTJsNjYxLjUwNCAwek05MDkuMzEyIDc5NS42NDhxMC03LjE2OC02LjE0NC0xMS43NzZ0LTEzLjMxMi00LjYwOGwtNzQ3LjUyIDBxLTcuMTY4IDAtMTQuMzM2IDQuNjA4dC03LjE2OCAxMS43NzYgNi4xNDQgMTIuMjg4IDEzLjMxMiA1LjEybDc0OC41NDQgMHE3LjE2OCAwIDEzLjgyNC01LjEydDYuNjU2LTEyLjI4OHoiIHAtaWQ9IjE2MTU3Ii8+PC9zdmc+;" vertex="1" parent="J3CXu3NCxWOcpsQ5JQFd-16">
          <mxGeometry x="17.647058823529413" y="7.142857142857143" width="35.714285714285715" height="35.714285714285715" as="geometry" />
        </mxCell>
        <mxCell id="J3CXu3NCxWOcpsQ5JQFd-14" value="" style="shape=image;verticalLabelPosition=bottom;labelBackgroundColor=#ffffff;verticalAlign=top;aspect=fixed;imageAspect=0;image=data:image/svg+xml,PHN2ZyB4bWxucz0iaHR0cDovL3d3dy53My5vcmcvMjAwMC9zdmciIHhtbG5zOnhsaW5rPSJodHRwOi8vd3d3LnczLm9yZy8xOTk5L3hsaW5rIiB0PSIxNjM5NzA3MDM0MTM1IiBjbGFzcz0iaWNvbiIgdmlld0JveD0iMCAwIDEwMjQgMTAyNCIgdmVyc2lvbj0iMS4xIiBwLWlkPSIxNTAyOSIgd2lkdGg9IjI1MCIgaGVpZ2h0PSIyNTAiPjxkZWZzPjxzdHlsZSB0eXBlPSJ0ZXh0L2NzcyIvPjwvZGVmcz48cGF0aCBkPSJNODIwLjQwOTQ0OSA3OTcuMjI4MzQ2cTAgMjUuMTk2ODUtMTAuMDc4NzQgNDYuODY2MTQydC0yNy43MTY1MzUgMzguMjk5MjEzLTQxLjMyMjgzNSAyNi4yMDQ3MjQtNTAuODk3NjM4IDkuNTc0ODAzbC0zNTcuNzk1Mjc2IDBxLTI3LjIxMjU5OCAwLTUwLjg5NzYzOC05LjU3NDgwM3QtNDEuMzIyODM1LTI2LjIwNDcyNC0yNy43MTY1MzUtMzguMjk5MjEzLTEwLjA3ODc0LTQ2Ljg2NjE0MmwwLTY3NS4yNzU1OTFxMC0yNS4xOTY4NSAxMC4wNzg3NC00Ny4zNzAwNzl0MjcuNzE2NTM1LTM4LjgwMzE1IDQxLjMyMjgzNS0yNi4yMDQ3MjQgNTAuODk3NjM4LTkuNTc0ODAzbDM1Ny43OTUyNzYgMHEyNy4yMTI1OTggMCA1MC44OTc2MzggOS41NzQ4MDN0NDEuMzIyODM1IDI2LjIwNDcyNCAyNy43MTY1MzUgMzguODAzMTUgMTAuMDc4NzQgNDcuMzcwMDc5bDAgNjc1LjI3NTU5MXpNNzM4Ljc3MTY1NCAxNzAuMzMwNzA5bC00NTUuNTU5MDU1IDAgMCA1NzcuNTExODExIDQ1NS41NTkwNTUgMCAwLTU3Ny41MTE4MTF6TTUxMC45OTIxMjYgNzc2LjA2Mjk5MnEtMjEuMTY1MzU0IDAtMzYuNzg3NDAyIDE1LjExODExdC0xNS42MjIwNDcgMzcuMjkxMzM5cTAgMjEuMTY1MzU0IDE1LjYyMjA0NyAzNi43ODc0MDJ0MzYuNzg3NDAyIDE1LjYyMjA0N3EyMi4xNzMyMjggMCAzNy4yOTEzMzktMTUuNjIyMDQ3dDE1LjExODExLTM2Ljc4NzQwMnEwLTIyLjE3MzIyOC0xNS4xMTgxMS0zNy4yOTEzMzl0LTM3LjI5MTMzOS0xNS4xMTgxMXpNNTkxLjYyMjA0NyA4NC42NjE0MTdxMC04LjA2Mjk5Mi01LjAzOTM3LTEyLjU5ODQyNXQtMTEuMDg2NjE0LTQuNTM1NDMzbC0xMjggMHEtNS4wMzkzNyAwLTEwLjU4MjY3NyA0LjUzNTQzM3QtNS41NDMzMDcgMTIuNTk4NDI1IDUuMDM5MzcgMTIuNTk4NDI1IDExLjA4NjYxNCA0LjUzNTQzM2wxMjggMHE2LjA0NzI0NCAwIDExLjA4NjYxNC00LjUzNTQzM3Q1LjAzOTM3LTEyLjU5ODQyNXoiIHAtaWQ9IjE1MDMwIi8+PC9zdmc+;" vertex="1" parent="J3CXu3NCxWOcpsQ5JQFd-16">
          <mxGeometry x="105.88235294117646" y="14.285714285714286" width="17.857142857142858" height="17.857142857142858" as="geometry" />
        </mxCell>
        <mxCell id="J3CXu3NCxWOcpsQ5JQFd-15" value="" style="shape=image;verticalLabelPosition=bottom;labelBackgroundColor=#ffffff;verticalAlign=top;aspect=fixed;imageAspect=0;image=data:image/svg+xml,PHN2ZyB4bWxucz0iaHR0cDovL3d3dy53My5vcmcvMjAwMC9zdmciIHhtbG5zOnhsaW5rPSJodHRwOi8vd3d3LnczLm9yZy8xOTk5L3hsaW5rIiB0PSIxNjM5NzIxNzA5OTIwIiBjbGFzcz0iaWNvbiIgdmlld0JveD0iMCAwIDEwMjQgMTAyNCIgdmVyc2lvbj0iMS4xIiBwLWlkPSIyMjgwIiB3aWR0aD0iMjUwIiBoZWlnaHQ9IjI1MCI+PGRlZnM+PHN0eWxlIHR5cGU9InRleHQvY3NzIi8+PC9kZWZzPjxwYXRoIGQ9Ik0zMDMuMzQ3IDIxOS43MTljMzkuOTk5IDAgNzkuOTk4IDAgMTE5Ljk5NyAwIDU4LjgxMyAwIDExNy42MjYgMCAxNzYuNDM5IDAgOC4yNDEgMCAxNi40ODEgMCAyNC43MjMgMCAyMC40NDIgMCAzNy41LTE3LjA1OCAzNy41LTM3LjUgMC00NS40ODMgMC05MC45NjYgMC0xMzYuNDQ5IDAtMC4xMTQgMC0wLjIyOCAwLTAuMzQxLTIxLjMzOSA4LjgzOS00Mi42NzggMTcuNjc4LTY0LjAxNyAyNi41MTcgMjIuNzk5IDIzLjM5OCA0NS41OTkgNDYuNzk3IDY4LjM5NyA3MC4xOTYgNDQuNzcxIDQ1Ljk0OSA4OS41NDIgOTEuODk3IDEzNC4zMTMgMTM3Ljg0NiAzMS4zMDQgMzIuMTI4IDYyLjYwOCA2NC4yNTUgOTMuOTEzIDk2LjM4MyAxLjU3MSAxLjYxMyAzLjE0NCAzLjIyNiA0LjcxNSA0LjgzOSAwLTE3LjY3OCAwLTM1LjM1NSAwLTUzLjAzMy0yNS43NjIgMjMuOTczLTUxLjUyNCA0Ny45NDYtNzcuMjg2IDcxLjkxOS00Ni44NjYgNDMuNjExLTkzLjczMiA4Ny4yMjMtMTQwLjU5OSAxMzAuODM0LTIyLjUzMSAyMC45NjYtNDUuMDYyIDQxLjkzMi02Ny41OTMgNjIuODk3IDIxLjMzOSA4LjgzOSA0Mi42NzggMTcuNjc4IDY0LjAxNyAyNi41MTcgMC00Ni4wMDggMC05Mi4wMTYgMC0xMzguMDIzIDAtMC4yNSAwLTAuNSAwLTAuNzUgMC0yMC40NDItMTcuMDU4LTM3LjUtMzcuNS0zNy41LTQzLjQzMSAwLTg2Ljg2IDAtMTMwLjI5MSAwLTQ4LjYzNiAwLTk3LjI3MiAwLTE0NS45MDggMC0wLjQ0OSAwLTAuODk3IDAtMS4zNDYgMCAxMi41IDEyLjUgMjUgMjUgMzcuNSAzNy41IDAtNDQuMjc1IDAtODguNTUgMC0xMzIuODI2IDAtMTMuMjI1LTcuMTY5LTI1LjctMTguNTczLTMyLjM4LTE0LjYyMS04LjU2NC0zMy40NDYtNS45NzEtNDUuNDQzIDUuODY0LTI0LjAzMiAyMy43MDgtNDguMDY0IDQ3LjQxNS03Mi4wOTcgNzEuMTIzLTQ1LjcwNiA0NS4wODgtOTEuNDEyIDkwLjE3Ni0xMzcuMTE4IDEzNS4yNjQtMjcuNzkzIDI3LjQxOC01NS41ODYgNTQuODM1LTgzLjM3OSA4Mi4yNTItMC4yNzEgMC4yNjgtMC41NDIgMC41MzUtMC44MTMgMC44MDItNy4wMjYgNi45MzEtMTAuOTgzIDE2LjY2OC0xMC45ODMgMjYuNTE3IDAgMTAuNjQzIDQuMzczIDE4LjYxMSAxMC45ODMgMjYuNTE3IDIwLjYwOSAyNC42NDUgNDEuMjE5IDQ5LjI5IDYxLjgyOCA3My45MzUgNDEuMDc2IDQ5LjExOSA4Mi4xNTIgOTguMjM4IDEyMy4yMjggMTQ3LjM1NyAzMC40MTUgMzYuMzcgNjAuODMgNzIuNzQgOTEuMjQ0IDEwOS4xMSAyLjM5OCAyLjg2NyA0Ljc5NSA1LjczNCA3LjE5MyA4LjYwMiA4LjM2NCAxMC4wMDEgMjQuNDc1IDEyLjk0NyAzNi40ODYgOS42NDQgMTYuMDg2LTQuNDI1IDI3LjUzMS0xOS40ODIgMjcuNTMxLTM2LjE2IDAtNDguMjYgMC05Ni41MjEgMC0xNDQuNzggMC0xLjk2MyAwLTMuOTI1IDAtNS44ODgtMTIuNSAxMi41LTI1IDI1LTM3LjUgMzcuNSA0Ni4wNjcgMCA5Mi4xMzMgMCAxMzguMiAwIDM2LjA5NiAwIDcyLjE5MiAwIDEwOC4yODggMCAyMC40NDIgMCAzNy41LTE3LjA1OCAzNy41LTM3LjVzLTE3LjA1OC0zNy41LTM3LjUtMzcuNWMtNDYuMDY2IDAtOTIuMTMzIDAtMTM4LjIgMC0zNi4wOTYgMC03Mi4xOTIgMC0xMDguMjg4IDAtMjAuNDQyIDAtMzcuNSAxNy4wNTgtMzcuNSAzNy41IDAgNDguMjYgMCA5Ni41MjEgMCAxNDQuNzggMCAxLjk2MyAwIDMuOTI1IDAgNS44ODggMjEuMzM5LTguODM5IDQyLjY3OC0xNy42NzggNjQuMDE3LTI2LjUxNy0yMC42MDktMjQuNjQ1LTQxLjIxOS00OS4yOS02MS44MjgtNzMuOTM1LTQxLjA3Ni00OS4xMTktODIuMTUyLTk4LjIzOC0xMjMuMjI4LTE0Ny4zNTctMzAuNDE1LTM2LjM3LTYwLjgzLTcyLjc0LTkxLjI0NC0xMDkuMTEtMi4zOTgtMi44NjctNC43OTUtNS43MzQtNy4xOTMtOC42MDIgMCAxNy42NzggMCAzNS4zNTUgMCA1My4wMzMgMjQuMDMyLTIzLjcwOCA0OC4wNjQtNDcuNDE1IDcyLjA5Ny03MS4xMjIgNDUuNzA2LTQ1LjA4OSA5MS40MTItOTAuMTc3IDEzNy4xMTgtMTM1LjI2NSAyNy43OTMtMjcuNDE3IDU1LjU4Ni01NC44MzQgODMuMzc5LTgyLjI1MiAwLjI3MS0wLjI2NyAwLjU0Mi0wLjUzNCAwLjgxMy0wLjgwMS0yMS4zMzktOC44MzktNDIuNjc4LTE3LjY3OC02NC4wMTctMjYuNTE3IDAgNDQuMjc1IDAgODguNTUgMCAxMzIuODI2IDAgMjAuNDQyIDE3LjA1OCAzNy41IDM3LjUgMzcuNSA0My40MyAwIDg2Ljg2MSAwIDEzMC4yOTEgMCA0OC42MzYgMCA5Ny4yNzEgMCAxNDUuOTA4IDAgMC40NDggMCAwLjg5NiAwIDEuMzQ2IDAtMTIuNS0xMi41LTI1LTI1LTM3LjUtMzcuNSAwIDQ2LjAwNyAwIDkyLjAxNSAwIDEzOC4wMjMgMCAwLjI1IDAgMC41IDAgMC43NSAwIDEzLjIyNSA3LjE2OSAyNS43IDE4LjU3MyAzMi4zOCAxNC45NDIgOC43NTQgMzMuMDU3IDUuNjYzIDQ1LjQ0My01Ljg2MyAyNS43NjItMjMuOTczIDUxLjUyNC00Ny45NDYgNzcuMjg2LTcxLjkxOSA0Ni44NjYtNDMuNjExIDkzLjczMi04Ny4yMjMgMTQwLjU5OS0xMzAuODM0IDIyLjUzMS0yMC45NjYgNDUuMDYyLTQxLjkzMiA2Ny41OTMtNjIuODk4IDE1LjEwNi0xNC4wNTcgMTMuODY5LTM4Ljc5OSAwLTUzLjAzMy0yMi43OTktMjMuMzk4LTQ1LjU5OC00Ni43OTctNjguMzk3LTcwLjE5Ni00NC43NzEtNDUuOTQ5LTg5LjU0Mi05MS44OTctMTM0LjMxMy0xMzcuODQ2LTMxLjMwNC0zMi4xMjgtNjIuNjA4LTY0LjI1NS05My45MTMtOTYuMzgzLTEuNTcxLTEuNjEzLTMuMTQ0LTMuMjI2LTQuNzE1LTQuODM5LTkuMjk5LTkuNTQzLTIzLjcxMS0xMy4xNTgtMzYuNDg1LTkuNjQ0LTE2LjA4NyA0LjQyNS0yNy41MzEgMTkuNDgzLTI3LjUzMSAzNi4xNjEgMCA0NS40ODMgMCA5MC45NjYgMCAxMzYuNDQ5IDAgMC4xMTQgMCAwLjIyOCAwIDAuMzQxIDEyLjUtMTIuNSAyNS0yNSAzNy41LTM3LjUtMzkuOTk5IDAtNzkuOTk4IDAtMTE5Ljk5NyAwLTU4LjgxMyAwLTExNy42MjYgMC0xNzYuNDM5IDAtOC4yNDEgMC0xNi40ODIgMC0yNC43MjMgMC0yMC40NDIgMC0zNy41IDE3LjA1OC0zNy41IDM3LjVTMjgyLjkwNSAyMTkuNzE5IDMwMy4zNDcgMjE5LjcxOUwzMDMuMzQ3IDIxOS43MTl6IiBmaWxsPSIjNTE1MTUxIiBwLWlkPSIyMjgxIi8+PC9zdmc+;rotation=0;" vertex="1" parent="J3CXu3NCxWOcpsQ5JQFd-16">
          <mxGeometry x="70.58823529411765" y="14.285714285714286" width="21.42857142857143" height="21.42857142857143" as="geometry" />
        </mxCell>
        <mxCell id="J3CXu3NCxWOcpsQ5JQFd-22" value="" style="group" vertex="1" connectable="0" parent="1">
          <mxGeometry x="370" y="250" width="150" height="50" as="geometry" />
        </mxCell>
        <mxCell id="J3CXu3NCxWOcpsQ5JQFd-23" value="" style="ellipse;whiteSpace=wrap;html=1;" vertex="1" parent="J3CXu3NCxWOcpsQ5JQFd-22">
          <mxGeometry width="150" height="50" as="geometry" />
        </mxCell>
        <mxCell id="J3CXu3NCxWOcpsQ5JQFd-24" value="" style="shape=image;verticalLabelPosition=bottom;labelBackgroundColor=#ffffff;verticalAlign=top;aspect=fixed;imageAspect=0;image=data:image/svg+xml,PHN2ZyB4bWxucz0iaHR0cDovL3d3dy53My5vcmcvMjAwMC9zdmciIHhtbG5zOnhsaW5rPSJodHRwOi8vd3d3LnczLm9yZy8xOTk5L3hsaW5rIiB0PSIxNjM5NzA3MDQ4NTEzIiBjbGFzcz0iaWNvbiIgdmlld0JveD0iMCAwIDEwMjQgMTAyNCIgdmVyc2lvbj0iMS4xIiBwLWlkPSIxNjE1NiIgd2lkdGg9IjI1MCIgaGVpZ2h0PSIyNTAiPjxkZWZzPjxzdHlsZSB0eXBlPSJ0ZXh0L2NzcyIvPjwvZGVmcz48cGF0aCBkPSJNODc2LjU0NCA1NDcuODRsMy4wNzIgMC03MzEuMTM2IDAgMC00MzQuMTc2cTAtNDMuMDA4IDIxLjUwNC02Ni4wNDh0NjUuNTM2LTIzLjA0bDU1OC4wOCAwcTQ2LjA4IDAgNjUuMDI0IDI2LjExMnQxNy45MiA2Ny4wNzJsMCA0MzAuMDh6TTgwMC43NjggOTYuMjU2bC01NzkuNTg0IDAgMCAzMjMuNTg0IDU3OS41ODQgMS4wMjQgMC0zMjQuNjA4ek01NjMuMiA0ODQuMzUycTAtMTQuMzM2LTE5LjQ1Ni0xNi4zODRsLTYyLjQ2NCAwcS0xOS40NTYgMC0xOS40NTYgMTYuMzg0IDAgNS4xMiA1LjEyIDEwLjI0dDEzLjMxMiA2LjE0NGw2MS40NC0xLjAyNHE5LjIxNiAwIDE1LjM2LTUuMTJ0Ni4xNDQtMTAuMjR6TTg1OS4xMzYgNjA2LjIwOHExMS4yNjQgMCAxNS4zNiA3LjE2OHQxMi4yODggMjAuNDhxNC4wOTYgNy4xNjggMTUuMzYgMjUuNnQyNC4wNjQgMzkuNDI0IDI0LjA2NCAzOS40MjQgMTUuMzYgMjQuNTc2cTguMTkyIDEzLjMxMiAxMy44MjQgMjUuMDg4dC03LjY4IDI4LjE2cS0yNi42MjQgMzEuNzQ0LTQ2LjA4IDM4LjkxMnQtMjkuNjk2IDcuMTY4bC0zOC45MTIgMC04OS4wODggMC0xMjEuODU2IDAtMTM4LjI0IDAtMTM3LjIxNiAwcS02Ny41ODQgMC0xMjEuMzQ0LTAuNTEydC04Ny41NTItMC41MTJsLTM4LjkxMiAwcS04LjE5MiAwLTE2Ljg5Ni00LjA5NnQtMTcuOTItMTAuNzUyLTE2Ljg5Ni0xNC4zMzYtMTMuODI0LTE0Ljg0OHEtNy4xNjgtOS4yMTYtOS4yMTYtMTYuMzg0dC0wLjUxMi0xMi44IDUuNjMyLTEwLjc1MiA4LjE5Mi0xMi4yODhxNC4wOTYtNi4xNDQgMTMuODI0LTIyLjAxNnQyMC45OTItMzUuMzI4bDI0LjU3Ni0zOC45MTJxMTEuMjY0LTE5LjQ1NiAxOS40NTYtMzIuNzY4dDEzLjgyNC0xOS45NjggMTEuNzc2LTguNzA0IDEzLjMxMi0xLjUzNiAxOC40MzIgMC41MTJsNjYxLjUwNCAwek05MDkuMzEyIDc5NS42NDhxMC03LjE2OC02LjE0NC0xMS43NzZ0LTEzLjMxMi00LjYwOGwtNzQ3LjUyIDBxLTcuMTY4IDAtMTQuMzM2IDQuNjA4dC03LjE2OCAxMS43NzYgNi4xNDQgMTIuMjg4IDEzLjMxMiA1LjEybDc0OC41NDQgMHE3LjE2OCAwIDEzLjgyNC01LjEydDYuNjU2LTEyLjI4OHoiIHAtaWQ9IjE2MTU3Ii8+PC9zdmc+;" vertex="1" parent="J3CXu3NCxWOcpsQ5JQFd-22">
          <mxGeometry x="17.647058823529413" y="7.142857142857143" width="35.714285714285715" height="35.714285714285715" as="geometry" />
        </mxCell>
        <mxCell id="J3CXu3NCxWOcpsQ5JQFd-25" value="" style="shape=image;verticalLabelPosition=bottom;labelBackgroundColor=#ffffff;verticalAlign=top;aspect=fixed;imageAspect=0;image=data:image/svg+xml,PHN2ZyB4bWxucz0iaHR0cDovL3d3dy53My5vcmcvMjAwMC9zdmciIHhtbG5zOnhsaW5rPSJodHRwOi8vd3d3LnczLm9yZy8xOTk5L3hsaW5rIiB0PSIxNjM5NzA3MDM0MTM1IiBjbGFzcz0iaWNvbiIgdmlld0JveD0iMCAwIDEwMjQgMTAyNCIgdmVyc2lvbj0iMS4xIiBwLWlkPSIxNTAyOSIgd2lkdGg9IjI1MCIgaGVpZ2h0PSIyNTAiPjxkZWZzPjxzdHlsZSB0eXBlPSJ0ZXh0L2NzcyIvPjwvZGVmcz48cGF0aCBkPSJNODIwLjQwOTQ0OSA3OTcuMjI4MzQ2cTAgMjUuMTk2ODUtMTAuMDc4NzQgNDYuODY2MTQydC0yNy43MTY1MzUgMzguMjk5MjEzLTQxLjMyMjgzNSAyNi4yMDQ3MjQtNTAuODk3NjM4IDkuNTc0ODAzbC0zNTcuNzk1Mjc2IDBxLTI3LjIxMjU5OCAwLTUwLjg5NzYzOC05LjU3NDgwM3QtNDEuMzIyODM1LTI2LjIwNDcyNC0yNy43MTY1MzUtMzguMjk5MjEzLTEwLjA3ODc0LTQ2Ljg2NjE0MmwwLTY3NS4yNzU1OTFxMC0yNS4xOTY4NSAxMC4wNzg3NC00Ny4zNzAwNzl0MjcuNzE2NTM1LTM4LjgwMzE1IDQxLjMyMjgzNS0yNi4yMDQ3MjQgNTAuODk3NjM4LTkuNTc0ODAzbDM1Ny43OTUyNzYgMHEyNy4yMTI1OTggMCA1MC44OTc2MzggOS41NzQ4MDN0NDEuMzIyODM1IDI2LjIwNDcyNCAyNy43MTY1MzUgMzguODAzMTUgMTAuMDc4NzQgNDcuMzcwMDc5bDAgNjc1LjI3NTU5MXpNNzM4Ljc3MTY1NCAxNzAuMzMwNzA5bC00NTUuNTU5MDU1IDAgMCA1NzcuNTExODExIDQ1NS41NTkwNTUgMCAwLTU3Ny41MTE4MTF6TTUxMC45OTIxMjYgNzc2LjA2Mjk5MnEtMjEuMTY1MzU0IDAtMzYuNzg3NDAyIDE1LjExODExdC0xNS42MjIwNDcgMzcuMjkxMzM5cTAgMjEuMTY1MzU0IDE1LjYyMjA0NyAzNi43ODc0MDJ0MzYuNzg3NDAyIDE1LjYyMjA0N3EyMi4xNzMyMjggMCAzNy4yOTEzMzktMTUuNjIyMDQ3dDE1LjExODExLTM2Ljc4NzQwMnEwLTIyLjE3MzIyOC0xNS4xMTgxMS0zNy4yOTEzMzl0LTM3LjI5MTMzOS0xNS4xMTgxMXpNNTkxLjYyMjA0NyA4NC42NjE0MTdxMC04LjA2Mjk5Mi01LjAzOTM3LTEyLjU5ODQyNXQtMTEuMDg2NjE0LTQuNTM1NDMzbC0xMjggMHEtNS4wMzkzNyAwLTEwLjU4MjY3NyA0LjUzNTQzM3QtNS41NDMzMDcgMTIuNTk4NDI1IDUuMDM5MzcgMTIuNTk4NDI1IDExLjA4NjYxNCA0LjUzNTQzM2wxMjggMHE2LjA0NzI0NCAwIDExLjA4NjYxNC00LjUzNTQzM3Q1LjAzOTM3LTEyLjU5ODQyNXoiIHAtaWQ9IjE1MDMwIi8+PC9zdmc+;" vertex="1" parent="J3CXu3NCxWOcpsQ5JQFd-22">
          <mxGeometry x="105.88235294117646" y="14.285714285714286" width="17.857142857142858" height="17.857142857142858" as="geometry" />
        </mxCell>
        <mxCell id="J3CXu3NCxWOcpsQ5JQFd-26" value="" style="shape=image;verticalLabelPosition=bottom;labelBackgroundColor=#ffffff;verticalAlign=top;aspect=fixed;imageAspect=0;image=data:image/svg+xml,PHN2ZyB4bWxucz0iaHR0cDovL3d3dy53My5vcmcvMjAwMC9zdmciIHhtbG5zOnhsaW5rPSJodHRwOi8vd3d3LnczLm9yZy8xOTk5L3hsaW5rIiB0PSIxNjM5NzIxNzA5OTIwIiBjbGFzcz0iaWNvbiIgdmlld0JveD0iMCAwIDEwMjQgMTAyNCIgdmVyc2lvbj0iMS4xIiBwLWlkPSIyMjgwIiB3aWR0aD0iMjUwIiBoZWlnaHQ9IjI1MCI+PGRlZnM+PHN0eWxlIHR5cGU9InRleHQvY3NzIi8+PC9kZWZzPjxwYXRoIGQ9Ik0zMDMuMzQ3IDIxOS43MTljMzkuOTk5IDAgNzkuOTk4IDAgMTE5Ljk5NyAwIDU4LjgxMyAwIDExNy42MjYgMCAxNzYuNDM5IDAgOC4yNDEgMCAxNi40ODEgMCAyNC43MjMgMCAyMC40NDIgMCAzNy41LTE3LjA1OCAzNy41LTM3LjUgMC00NS40ODMgMC05MC45NjYgMC0xMzYuNDQ5IDAtMC4xMTQgMC0wLjIyOCAwLTAuMzQxLTIxLjMzOSA4LjgzOS00Mi42NzggMTcuNjc4LTY0LjAxNyAyNi41MTcgMjIuNzk5IDIzLjM5OCA0NS41OTkgNDYuNzk3IDY4LjM5NyA3MC4xOTYgNDQuNzcxIDQ1Ljk0OSA4OS41NDIgOTEuODk3IDEzNC4zMTMgMTM3Ljg0NiAzMS4zMDQgMzIuMTI4IDYyLjYwOCA2NC4yNTUgOTMuOTEzIDk2LjM4MyAxLjU3MSAxLjYxMyAzLjE0NCAzLjIyNiA0LjcxNSA0LjgzOSAwLTE3LjY3OCAwLTM1LjM1NSAwLTUzLjAzMy0yNS43NjIgMjMuOTczLTUxLjUyNCA0Ny45NDYtNzcuMjg2IDcxLjkxOS00Ni44NjYgNDMuNjExLTkzLjczMiA4Ny4yMjMtMTQwLjU5OSAxMzAuODM0LTIyLjUzMSAyMC45NjYtNDUuMDYyIDQxLjkzMi02Ny41OTMgNjIuODk3IDIxLjMzOSA4LjgzOSA0Mi42NzggMTcuNjc4IDY0LjAxNyAyNi41MTcgMC00Ni4wMDggMC05Mi4wMTYgMC0xMzguMDIzIDAtMC4yNSAwLTAuNSAwLTAuNzUgMC0yMC40NDItMTcuMDU4LTM3LjUtMzcuNS0zNy41LTQzLjQzMSAwLTg2Ljg2IDAtMTMwLjI5MSAwLTQ4LjYzNiAwLTk3LjI3MiAwLTE0NS45MDggMC0wLjQ0OSAwLTAuODk3IDAtMS4zNDYgMCAxMi41IDEyLjUgMjUgMjUgMzcuNSAzNy41IDAtNDQuMjc1IDAtODguNTUgMC0xMzIuODI2IDAtMTMuMjI1LTcuMTY5LTI1LjctMTguNTczLTMyLjM4LTE0LjYyMS04LjU2NC0zMy40NDYtNS45NzEtNDUuNDQzIDUuODY0LTI0LjAzMiAyMy43MDgtNDguMDY0IDQ3LjQxNS03Mi4wOTcgNzEuMTIzLTQ1LjcwNiA0NS4wODgtOTEuNDEyIDkwLjE3Ni0xMzcuMTE4IDEzNS4yNjQtMjcuNzkzIDI3LjQxOC01NS41ODYgNTQuODM1LTgzLjM3OSA4Mi4yNTItMC4yNzEgMC4yNjgtMC41NDIgMC41MzUtMC44MTMgMC44MDItNy4wMjYgNi45MzEtMTAuOTgzIDE2LjY2OC0xMC45ODMgMjYuNTE3IDAgMTAuNjQzIDQuMzczIDE4LjYxMSAxMC45ODMgMjYuNTE3IDIwLjYwOSAyNC42NDUgNDEuMjE5IDQ5LjI5IDYxLjgyOCA3My45MzUgNDEuMDc2IDQ5LjExOSA4Mi4xNTIgOTguMjM4IDEyMy4yMjggMTQ3LjM1NyAzMC40MTUgMzYuMzcgNjAuODMgNzIuNzQgOTEuMjQ0IDEwOS4xMSAyLjM5OCAyLjg2NyA0Ljc5NSA1LjczNCA3LjE5MyA4LjYwMiA4LjM2NCAxMC4wMDEgMjQuNDc1IDEyLjk0NyAzNi40ODYgOS42NDQgMTYuMDg2LTQuNDI1IDI3LjUzMS0xOS40ODIgMjcuNTMxLTM2LjE2IDAtNDguMjYgMC05Ni41MjEgMC0xNDQuNzggMC0xLjk2MyAwLTMuOTI1IDAtNS44ODgtMTIuNSAxMi41LTI1IDI1LTM3LjUgMzcuNSA0Ni4wNjcgMCA5Mi4xMzMgMCAxMzguMiAwIDM2LjA5NiAwIDcyLjE5MiAwIDEwOC4yODggMCAyMC40NDIgMCAzNy41LTE3LjA1OCAzNy41LTM3LjVzLTE3LjA1OC0zNy41LTM3LjUtMzcuNWMtNDYuMDY2IDAtOTIuMTMzIDAtMTM4LjIgMC0zNi4wOTYgMC03Mi4xOTIgMC0xMDguMjg4IDAtMjAuNDQyIDAtMzcuNSAxNy4wNTgtMzcuNSAzNy41IDAgNDguMjYgMCA5Ni41MjEgMCAxNDQuNzggMCAxLjk2MyAwIDMuOTI1IDAgNS44ODggMjEuMzM5LTguODM5IDQyLjY3OC0xNy42NzggNjQuMDE3LTI2LjUxNy0yMC42MDktMjQuNjQ1LTQxLjIxOS00OS4yOS02MS44MjgtNzMuOTM1LTQxLjA3Ni00OS4xMTktODIuMTUyLTk4LjIzOC0xMjMuMjI4LTE0Ny4zNTctMzAuNDE1LTM2LjM3LTYwLjgzLTcyLjc0LTkxLjI0NC0xMDkuMTEtMi4zOTgtMi44NjctNC43OTUtNS43MzQtNy4xOTMtOC42MDIgMCAxNy42NzggMCAzNS4zNTUgMCA1My4wMzMgMjQuMDMyLTIzLjcwOCA0OC4wNjQtNDcuNDE1IDcyLjA5Ny03MS4xMjIgNDUuNzA2LTQ1LjA4OSA5MS40MTItOTAuMTc3IDEzNy4xMTgtMTM1LjI2NSAyNy43OTMtMjcuNDE3IDU1LjU4Ni01NC44MzQgODMuMzc5LTgyLjI1MiAwLjI3MS0wLjI2NyAwLjU0Mi0wLjUzNCAwLjgxMy0wLjgwMS0yMS4zMzktOC44MzktNDIuNjc4LTE3LjY3OC02NC4wMTctMjYuNTE3IDAgNDQuMjc1IDAgODguNTUgMCAxMzIuODI2IDAgMjAuNDQyIDE3LjA1OCAzNy41IDM3LjUgMzcuNSA0My40MyAwIDg2Ljg2MSAwIDEzMC4yOTEgMCA0OC42MzYgMCA5Ny4yNzEgMCAxNDUuOTA4IDAgMC40NDggMCAwLjg5NiAwIDEuMzQ2IDAtMTIuNS0xMi41LTI1LTI1LTM3LjUtMzcuNSAwIDQ2LjAwNyAwIDkyLjAxNSAwIDEzOC4wMjMgMCAwLjI1IDAgMC41IDAgMC43NSAwIDEzLjIyNSA3LjE2OSAyNS43IDE4LjU3MyAzMi4zOCAxNC45NDIgOC43NTQgMzMuMDU3IDUuNjYzIDQ1LjQ0My01Ljg2MyAyNS43NjItMjMuOTczIDUxLjUyNC00Ny45NDYgNzcuMjg2LTcxLjkxOSA0Ni44NjYtNDMuNjExIDkzLjczMi04Ny4yMjMgMTQwLjU5OS0xMzAuODM0IDIyLjUzMS0yMC45NjYgNDUuMDYyLTQxLjkzMiA2Ny41OTMtNjIuODk4IDE1LjEwNi0xNC4wNTcgMTMuODY5LTM4Ljc5OSAwLTUzLjAzMy0yMi43OTktMjMuMzk4LTQ1LjU5OC00Ni43OTctNjguMzk3LTcwLjE5Ni00NC43NzEtNDUuOTQ5LTg5LjU0Mi05MS44OTctMTM0LjMxMy0xMzcuODQ2LTMxLjMwNC0zMi4xMjgtNjIuNjA4LTY0LjI1NS05My45MTMtOTYuMzgzLTEuNTcxLTEuNjEzLTMuMTQ0LTMuMjI2LTQuNzE1LTQuODM5LTkuMjk5LTkuNTQzLTIzLjcxMS0xMy4xNTgtMzYuNDg1LTkuNjQ0LTE2LjA4NyA0LjQyNS0yNy41MzEgMTkuNDgzLTI3LjUzMSAzNi4xNjEgMCA0NS40ODMgMCA5MC45NjYgMCAxMzYuNDQ5IDAgMC4xMTQgMCAwLjIyOCAwIDAuMzQxIDEyLjUtMTIuNSAyNS0yNSAzNy41LTM3LjUtMzkuOTk5IDAtNzkuOTk4IDAtMTE5Ljk5NyAwLTU4LjgxMyAwLTExNy42MjYgMC0xNzYuNDM5IDAtOC4yNDEgMC0xNi40ODIgMC0yNC43MjMgMC0yMC40NDIgMC0zNy41IDE3LjA1OC0zNy41IDM3LjVTMjgyLjkwNSAyMTkuNzE5IDMwMy4zNDcgMjE5LjcxOUwzMDMuMzQ3IDIxOS43MTl6IiBmaWxsPSIjNTE1MTUxIiBwLWlkPSIyMjgxIi8+PC9zdmc+;rotation=0;" vertex="1" parent="J3CXu3NCxWOcpsQ5JQFd-22">
          <mxGeometry x="70.58823529411765" y="14.285714285714286" width="21.42857142857143" height="21.42857142857143" as="geometry" />
        </mxCell>
        <mxCell id="J3CXu3NCxWOcpsQ5JQFd-27" value="" style="group" vertex="1" connectable="0" parent="1">
          <mxGeometry x="560" y="200" width="150" height="50" as="geometry" />
        </mxCell>
        <mxCell id="J3CXu3NCxWOcpsQ5JQFd-28" value="" style="ellipse;whiteSpace=wrap;html=1;" vertex="1" parent="J3CXu3NCxWOcpsQ5JQFd-27">
          <mxGeometry width="150" height="50" as="geometry" />
        </mxCell>
        <mxCell id="J3CXu3NCxWOcpsQ5JQFd-29" value="" style="shape=image;verticalLabelPosition=bottom;labelBackgroundColor=#ffffff;verticalAlign=top;aspect=fixed;imageAspect=0;image=data:image/svg+xml,PHN2ZyB4bWxucz0iaHR0cDovL3d3dy53My5vcmcvMjAwMC9zdmciIHhtbG5zOnhsaW5rPSJodHRwOi8vd3d3LnczLm9yZy8xOTk5L3hsaW5rIiB0PSIxNjM5NzA3MDQ4NTEzIiBjbGFzcz0iaWNvbiIgdmlld0JveD0iMCAwIDEwMjQgMTAyNCIgdmVyc2lvbj0iMS4xIiBwLWlkPSIxNjE1NiIgd2lkdGg9IjI1MCIgaGVpZ2h0PSIyNTAiPjxkZWZzPjxzdHlsZSB0eXBlPSJ0ZXh0L2NzcyIvPjwvZGVmcz48cGF0aCBkPSJNODc2LjU0NCA1NDcuODRsMy4wNzIgMC03MzEuMTM2IDAgMC00MzQuMTc2cTAtNDMuMDA4IDIxLjUwNC02Ni4wNDh0NjUuNTM2LTIzLjA0bDU1OC4wOCAwcTQ2LjA4IDAgNjUuMDI0IDI2LjExMnQxNy45MiA2Ny4wNzJsMCA0MzAuMDh6TTgwMC43NjggOTYuMjU2bC01NzkuNTg0IDAgMCAzMjMuNTg0IDU3OS41ODQgMS4wMjQgMC0zMjQuNjA4ek01NjMuMiA0ODQuMzUycTAtMTQuMzM2LTE5LjQ1Ni0xNi4zODRsLTYyLjQ2NCAwcS0xOS40NTYgMC0xOS40NTYgMTYuMzg0IDAgNS4xMiA1LjEyIDEwLjI0dDEzLjMxMiA2LjE0NGw2MS40NC0xLjAyNHE5LjIxNiAwIDE1LjM2LTUuMTJ0Ni4xNDQtMTAuMjR6TTg1OS4xMzYgNjA2LjIwOHExMS4yNjQgMCAxNS4zNiA3LjE2OHQxMi4yODggMjAuNDhxNC4wOTYgNy4xNjggMTUuMzYgMjUuNnQyNC4wNjQgMzkuNDI0IDI0LjA2NCAzOS40MjQgMTUuMzYgMjQuNTc2cTguMTkyIDEzLjMxMiAxMy44MjQgMjUuMDg4dC03LjY4IDI4LjE2cS0yNi42MjQgMzEuNzQ0LTQ2LjA4IDM4LjkxMnQtMjkuNjk2IDcuMTY4bC0zOC45MTIgMC04OS4wODggMC0xMjEuODU2IDAtMTM4LjI0IDAtMTM3LjIxNiAwcS02Ny41ODQgMC0xMjEuMzQ0LTAuNTEydC04Ny41NTItMC41MTJsLTM4LjkxMiAwcS04LjE5MiAwLTE2Ljg5Ni00LjA5NnQtMTcuOTItMTAuNzUyLTE2Ljg5Ni0xNC4zMzYtMTMuODI0LTE0Ljg0OHEtNy4xNjgtOS4yMTYtOS4yMTYtMTYuMzg0dC0wLjUxMi0xMi44IDUuNjMyLTEwLjc1MiA4LjE5Mi0xMi4yODhxNC4wOTYtNi4xNDQgMTMuODI0LTIyLjAxNnQyMC45OTItMzUuMzI4bDI0LjU3Ni0zOC45MTJxMTEuMjY0LTE5LjQ1NiAxOS40NTYtMzIuNzY4dDEzLjgyNC0xOS45NjggMTEuNzc2LTguNzA0IDEzLjMxMi0xLjUzNiAxOC40MzIgMC41MTJsNjYxLjUwNCAwek05MDkuMzEyIDc5NS42NDhxMC03LjE2OC02LjE0NC0xMS43NzZ0LTEzLjMxMi00LjYwOGwtNzQ3LjUyIDBxLTcuMTY4IDAtMTQuMzM2IDQuNjA4dC03LjE2OCAxMS43NzYgNi4xNDQgMTIuMjg4IDEzLjMxMiA1LjEybDc0OC41NDQgMHE3LjE2OCAwIDEzLjgyNC01LjEydDYuNjU2LTEyLjI4OHoiIHAtaWQ9IjE2MTU3Ii8+PC9zdmc+;" vertex="1" parent="J3CXu3NCxWOcpsQ5JQFd-27">
          <mxGeometry x="17.647058823529413" y="7.142857142857143" width="35.714285714285715" height="35.714285714285715" as="geometry" />
        </mxCell>
        <mxCell id="J3CXu3NCxWOcpsQ5JQFd-30" value="" style="shape=image;verticalLabelPosition=bottom;labelBackgroundColor=#ffffff;verticalAlign=top;aspect=fixed;imageAspect=0;image=data:image/svg+xml,PHN2ZyB4bWxucz0iaHR0cDovL3d3dy53My5vcmcvMjAwMC9zdmciIHhtbG5zOnhsaW5rPSJodHRwOi8vd3d3LnczLm9yZy8xOTk5L3hsaW5rIiB0PSIxNjM5NzA3MDM0MTM1IiBjbGFzcz0iaWNvbiIgdmlld0JveD0iMCAwIDEwMjQgMTAyNCIgdmVyc2lvbj0iMS4xIiBwLWlkPSIxNTAyOSIgd2lkdGg9IjI1MCIgaGVpZ2h0PSIyNTAiPjxkZWZzPjxzdHlsZSB0eXBlPSJ0ZXh0L2NzcyIvPjwvZGVmcz48cGF0aCBkPSJNODIwLjQwOTQ0OSA3OTcuMjI4MzQ2cTAgMjUuMTk2ODUtMTAuMDc4NzQgNDYuODY2MTQydC0yNy43MTY1MzUgMzguMjk5MjEzLTQxLjMyMjgzNSAyNi4yMDQ3MjQtNTAuODk3NjM4IDkuNTc0ODAzbC0zNTcuNzk1Mjc2IDBxLTI3LjIxMjU5OCAwLTUwLjg5NzYzOC05LjU3NDgwM3QtNDEuMzIyODM1LTI2LjIwNDcyNC0yNy43MTY1MzUtMzguMjk5MjEzLTEwLjA3ODc0LTQ2Ljg2NjE0MmwwLTY3NS4yNzU1OTFxMC0yNS4xOTY4NSAxMC4wNzg3NC00Ny4zNzAwNzl0MjcuNzE2NTM1LTM4LjgwMzE1IDQxLjMyMjgzNS0yNi4yMDQ3MjQgNTAuODk3NjM4LTkuNTc0ODAzbDM1Ny43OTUyNzYgMHEyNy4yMTI1OTggMCA1MC44OTc2MzggOS41NzQ4MDN0NDEuMzIyODM1IDI2LjIwNDcyNCAyNy43MTY1MzUgMzguODAzMTUgMTAuMDc4NzQgNDcuMzcwMDc5bDAgNjc1LjI3NTU5MXpNNzM4Ljc3MTY1NCAxNzAuMzMwNzA5bC00NTUuNTU5MDU1IDAgMCA1NzcuNTExODExIDQ1NS41NTkwNTUgMCAwLTU3Ny41MTE4MTF6TTUxMC45OTIxMjYgNzc2LjA2Mjk5MnEtMjEuMTY1MzU0IDAtMzYuNzg3NDAyIDE1LjExODExdC0xNS42MjIwNDcgMzcuMjkxMzM5cTAgMjEuMTY1MzU0IDE1LjYyMjA0NyAzNi43ODc0MDJ0MzYuNzg3NDAyIDE1LjYyMjA0N3EyMi4xNzMyMjggMCAzNy4yOTEzMzktMTUuNjIyMDQ3dDE1LjExODExLTM2Ljc4NzQwMnEwLTIyLjE3MzIyOC0xNS4xMTgxMS0zNy4yOTEzMzl0LTM3LjI5MTMzOS0xNS4xMTgxMXpNNTkxLjYyMjA0NyA4NC42NjE0MTdxMC04LjA2Mjk5Mi01LjAzOTM3LTEyLjU5ODQyNXQtMTEuMDg2NjE0LTQuNTM1NDMzbC0xMjggMHEtNS4wMzkzNyAwLTEwLjU4MjY3NyA0LjUzNTQzM3QtNS41NDMzMDcgMTIuNTk4NDI1IDUuMDM5MzcgMTIuNTk4NDI1IDExLjA4NjYxNCA0LjUzNTQzM2wxMjggMHE2LjA0NzI0NCAwIDExLjA4NjYxNC00LjUzNTQzM3Q1LjAzOTM3LTEyLjU5ODQyNXoiIHAtaWQ9IjE1MDMwIi8+PC9zdmc+;" vertex="1" parent="J3CXu3NCxWOcpsQ5JQFd-27">
          <mxGeometry x="105.88235294117646" y="14.285714285714286" width="17.857142857142858" height="17.857142857142858" as="geometry" />
        </mxCell>
        <mxCell id="J3CXu3NCxWOcpsQ5JQFd-31" value="" style="shape=image;verticalLabelPosition=bottom;labelBackgroundColor=#ffffff;verticalAlign=top;aspect=fixed;imageAspect=0;image=data:image/svg+xml,PHN2ZyB4bWxucz0iaHR0cDovL3d3dy53My5vcmcvMjAwMC9zdmciIHhtbG5zOnhsaW5rPSJodHRwOi8vd3d3LnczLm9yZy8xOTk5L3hsaW5rIiB0PSIxNjM5NzIxNzA5OTIwIiBjbGFzcz0iaWNvbiIgdmlld0JveD0iMCAwIDEwMjQgMTAyNCIgdmVyc2lvbj0iMS4xIiBwLWlkPSIyMjgwIiB3aWR0aD0iMjUwIiBoZWlnaHQ9IjI1MCI+PGRlZnM+PHN0eWxlIHR5cGU9InRleHQvY3NzIi8+PC9kZWZzPjxwYXRoIGQ9Ik0zMDMuMzQ3IDIxOS43MTljMzkuOTk5IDAgNzkuOTk4IDAgMTE5Ljk5NyAwIDU4LjgxMyAwIDExNy42MjYgMCAxNzYuNDM5IDAgOC4yNDEgMCAxNi40ODEgMCAyNC43MjMgMCAyMC40NDIgMCAzNy41LTE3LjA1OCAzNy41LTM3LjUgMC00NS40ODMgMC05MC45NjYgMC0xMzYuNDQ5IDAtMC4xMTQgMC0wLjIyOCAwLTAuMzQxLTIxLjMzOSA4LjgzOS00Mi42NzggMTcuNjc4LTY0LjAxNyAyNi41MTcgMjIuNzk5IDIzLjM5OCA0NS41OTkgNDYuNzk3IDY4LjM5NyA3MC4xOTYgNDQuNzcxIDQ1Ljk0OSA4OS41NDIgOTEuODk3IDEzNC4zMTMgMTM3Ljg0NiAzMS4zMDQgMzIuMTI4IDYyLjYwOCA2NC4yNTUgOTMuOTEzIDk2LjM4MyAxLjU3MSAxLjYxMyAzLjE0NCAzLjIyNiA0LjcxNSA0LjgzOSAwLTE3LjY3OCAwLTM1LjM1NSAwLTUzLjAzMy0yNS43NjIgMjMuOTczLTUxLjUyNCA0Ny45NDYtNzcuMjg2IDcxLjkxOS00Ni44NjYgNDMuNjExLTkzLjczMiA4Ny4yMjMtMTQwLjU5OSAxMzAuODM0LTIyLjUzMSAyMC45NjYtNDUuMDYyIDQxLjkzMi02Ny41OTMgNjIuODk3IDIxLjMzOSA4LjgzOSA0Mi42NzggMTcuNjc4IDY0LjAxNyAyNi41MTcgMC00Ni4wMDggMC05Mi4wMTYgMC0xMzguMDIzIDAtMC4yNSAwLTAuNSAwLTAuNzUgMC0yMC40NDItMTcuMDU4LTM3LjUtMzcuNS0zNy41LTQzLjQzMSAwLTg2Ljg2IDAtMTMwLjI5MSAwLTQ4LjYzNiAwLTk3LjI3MiAwLTE0NS45MDggMC0wLjQ0OSAwLTAuODk3IDAtMS4zNDYgMCAxMi41IDEyLjUgMjUgMjUgMzcuNSAzNy41IDAtNDQuMjc1IDAtODguNTUgMC0xMzIuODI2IDAtMTMuMjI1LTcuMTY5LTI1LjctMTguNTczLTMyLjM4LTE0LjYyMS04LjU2NC0zMy40NDYtNS45NzEtNDUuNDQzIDUuODY0LTI0LjAzMiAyMy43MDgtNDguMDY0IDQ3LjQxNS03Mi4wOTcgNzEuMTIzLTQ1LjcwNiA0NS4wODgtOTEuNDEyIDkwLjE3Ni0xMzcuMTE4IDEzNS4yNjQtMjcuNzkzIDI3LjQxOC01NS41ODYgNTQuODM1LTgzLjM3OSA4Mi4yNTItMC4yNzEgMC4yNjgtMC41NDIgMC41MzUtMC44MTMgMC44MDItNy4wMjYgNi45MzEtMTAuOTgzIDE2LjY2OC0xMC45ODMgMjYuNTE3IDAgMTAuNjQzIDQuMzczIDE4LjYxMSAxMC45ODMgMjYuNTE3IDIwLjYwOSAyNC42NDUgNDEuMjE5IDQ5LjI5IDYxLjgyOCA3My45MzUgNDEuMDc2IDQ5LjExOSA4Mi4xNTIgOTguMjM4IDEyMy4yMjggMTQ3LjM1NyAzMC40MTUgMzYuMzcgNjAuODMgNzIuNzQgOTEuMjQ0IDEwOS4xMSAyLjM5OCAyLjg2NyA0Ljc5NSA1LjczNCA3LjE5MyA4LjYwMiA4LjM2NCAxMC4wMDEgMjQuNDc1IDEyLjk0NyAzNi40ODYgOS42NDQgMTYuMDg2LTQuNDI1IDI3LjUzMS0xOS40ODIgMjcuNTMxLTM2LjE2IDAtNDguMjYgMC05Ni41MjEgMC0xNDQuNzggMC0xLjk2MyAwLTMuOTI1IDAtNS44ODgtMTIuNSAxMi41LTI1IDI1LTM3LjUgMzcuNSA0Ni4wNjcgMCA5Mi4xMzMgMCAxMzguMiAwIDM2LjA5NiAwIDcyLjE5MiAwIDEwOC4yODggMCAyMC40NDIgMCAzNy41LTE3LjA1OCAzNy41LTM3LjVzLTE3LjA1OC0zNy41LTM3LjUtMzcuNWMtNDYuMDY2IDAtOTIuMTMzIDAtMTM4LjIgMC0zNi4wOTYgMC03Mi4xOTIgMC0xMDguMjg4IDAtMjAuNDQyIDAtMzcuNSAxNy4wNTgtMzcuNSAzNy41IDAgNDguMjYgMCA5Ni41MjEgMCAxNDQuNzggMCAxLjk2MyAwIDMuOTI1IDAgNS44ODggMjEuMzM5LTguODM5IDQyLjY3OC0xNy42NzggNjQuMDE3LTI2LjUxNy0yMC42MDktMjQuNjQ1LTQxLjIxOS00OS4yOS02MS44MjgtNzMuOTM1LTQxLjA3Ni00OS4xMTktODIuMTUyLTk4LjIzOC0xMjMuMjI4LTE0Ny4zNTctMzAuNDE1LTM2LjM3LTYwLjgzLTcyLjc0LTkxLjI0NC0xMDkuMTEtMi4zOTgtMi44NjctNC43OTUtNS43MzQtNy4xOTMtOC42MDIgMCAxNy42NzggMCAzNS4zNTUgMCA1My4wMzMgMjQuMDMyLTIzLjcwOCA0OC4wNjQtNDcuNDE1IDcyLjA5Ny03MS4xMjIgNDUuNzA2LTQ1LjA4OSA5MS40MTItOTAuMTc3IDEzNy4xMTgtMTM1LjI2NSAyNy43OTMtMjcuNDE3IDU1LjU4Ni01NC44MzQgODMuMzc5LTgyLjI1MiAwLjI3MS0wLjI2NyAwLjU0Mi0wLjUzNCAwLjgxMy0wLjgwMS0yMS4zMzktOC44MzktNDIuNjc4LTE3LjY3OC02NC4wMTctMjYuNTE3IDAgNDQuMjc1IDAgODguNTUgMCAxMzIuODI2IDAgMjAuNDQyIDE3LjA1OCAzNy41IDM3LjUgMzcuNSA0My40MyAwIDg2Ljg2MSAwIDEzMC4yOTEgMCA0OC42MzYgMCA5Ny4yNzEgMCAxNDUuOTA4IDAgMC40NDggMCAwLjg5NiAwIDEuMzQ2IDAtMTIuNS0xMi41LTI1LTI1LTM3LjUtMzcuNSAwIDQ2LjAwNyAwIDkyLjAxNSAwIDEzOC4wMjMgMCAwLjI1IDAgMC41IDAgMC43NSAwIDEzLjIyNSA3LjE2OSAyNS43IDE4LjU3MyAzMi4zOCAxNC45NDIgOC43NTQgMzMuMDU3IDUuNjYzIDQ1LjQ0My01Ljg2MyAyNS43NjItMjMuOTczIDUxLjUyNC00Ny45NDYgNzcuMjg2LTcxLjkxOSA0Ni44NjYtNDMuNjExIDkzLjczMi04Ny4yMjMgMTQwLjU5OS0xMzAuODM0IDIyLjUzMS0yMC45NjYgNDUuMDYyLTQxLjkzMiA2Ny41OTMtNjIuODk4IDE1LjEwNi0xNC4wNTcgMTMuODY5LTM4Ljc5OSAwLTUzLjAzMy0yMi43OTktMjMuMzk4LTQ1LjU5OC00Ni43OTctNjguMzk3LTcwLjE5Ni00NC43NzEtNDUuOTQ5LTg5LjU0Mi05MS44OTctMTM0LjMxMy0xMzcuODQ2LTMxLjMwNC0zMi4xMjgtNjIuNjA4LTY0LjI1NS05My45MTMtOTYuMzgzLTEuNTcxLTEuNjEzLTMuMTQ0LTMuMjI2LTQuNzE1LTQuODM5LTkuMjk5LTkuNTQzLTIzLjcxMS0xMy4xNTgtMzYuNDg1LTkuNjQ0LTE2LjA4NyA0LjQyNS0yNy41MzEgMTkuNDgzLTI3LjUzMSAzNi4xNjEgMCA0NS40ODMgMCA5MC45NjYgMCAxMzYuNDQ5IDAgMC4xMTQgMCAwLjIyOCAwIDAuMzQxIDEyLjUtMTIuNSAyNS0yNSAzNy41LTM3LjUtMzkuOTk5IDAtNzkuOTk4IDAtMTE5Ljk5NyAwLTU4LjgxMyAwLTExNy42MjYgMC0xNzYuNDM5IDAtOC4yNDEgMC0xNi40ODIgMC0yNC43MjMgMC0yMC40NDIgMC0zNy41IDE3LjA1OC0zNy41IDM3LjVTMjgyLjkwNSAyMTkuNzE5IDMwMy4zNDcgMjE5LjcxOUwzMDMuMzQ3IDIxOS43MTl6IiBmaWxsPSIjNTE1MTUxIiBwLWlkPSIyMjgxIi8+PC9zdmc+;rotation=0;" vertex="1" parent="J3CXu3NCxWOcpsQ5JQFd-27">
          <mxGeometry x="70.58823529411765" y="14.285714285714286" width="21.42857142857143" height="21.42857142857143" as="geometry" />
        </mxCell>
        <mxCell id="J3CXu3NCxWOcpsQ5JQFd-32" value="" style="group" vertex="1" connectable="0" parent="1">
          <mxGeometry x="210" y="60" width="150" height="50" as="geometry" />
        </mxCell>
        <mxCell id="J3CXu3NCxWOcpsQ5JQFd-33" value="" style="ellipse;whiteSpace=wrap;html=1;" vertex="1" parent="J3CXu3NCxWOcpsQ5JQFd-32">
          <mxGeometry width="150" height="50" as="geometry" />
        </mxCell>
        <mxCell id="J3CXu3NCxWOcpsQ5JQFd-34" value="" style="shape=image;verticalLabelPosition=bottom;labelBackgroundColor=#ffffff;verticalAlign=top;aspect=fixed;imageAspect=0;image=data:image/svg+xml,PHN2ZyB4bWxucz0iaHR0cDovL3d3dy53My5vcmcvMjAwMC9zdmciIHhtbG5zOnhsaW5rPSJodHRwOi8vd3d3LnczLm9yZy8xOTk5L3hsaW5rIiB0PSIxNjM5NzA3MDQ4NTEzIiBjbGFzcz0iaWNvbiIgdmlld0JveD0iMCAwIDEwMjQgMTAyNCIgdmVyc2lvbj0iMS4xIiBwLWlkPSIxNjE1NiIgd2lkdGg9IjI1MCIgaGVpZ2h0PSIyNTAiPjxkZWZzPjxzdHlsZSB0eXBlPSJ0ZXh0L2NzcyIvPjwvZGVmcz48cGF0aCBkPSJNODc2LjU0NCA1NDcuODRsMy4wNzIgMC03MzEuMTM2IDAgMC00MzQuMTc2cTAtNDMuMDA4IDIxLjUwNC02Ni4wNDh0NjUuNTM2LTIzLjA0bDU1OC4wOCAwcTQ2LjA4IDAgNjUuMDI0IDI2LjExMnQxNy45MiA2Ny4wNzJsMCA0MzAuMDh6TTgwMC43NjggOTYuMjU2bC01NzkuNTg0IDAgMCAzMjMuNTg0IDU3OS41ODQgMS4wMjQgMC0zMjQuNjA4ek01NjMuMiA0ODQuMzUycTAtMTQuMzM2LTE5LjQ1Ni0xNi4zODRsLTYyLjQ2NCAwcS0xOS40NTYgMC0xOS40NTYgMTYuMzg0IDAgNS4xMiA1LjEyIDEwLjI0dDEzLjMxMiA2LjE0NGw2MS40NC0xLjAyNHE5LjIxNiAwIDE1LjM2LTUuMTJ0Ni4xNDQtMTAuMjR6TTg1OS4xMzYgNjA2LjIwOHExMS4yNjQgMCAxNS4zNiA3LjE2OHQxMi4yODggMjAuNDhxNC4wOTYgNy4xNjggMTUuMzYgMjUuNnQyNC4wNjQgMzkuNDI0IDI0LjA2NCAzOS40MjQgMTUuMzYgMjQuNTc2cTguMTkyIDEzLjMxMiAxMy44MjQgMjUuMDg4dC03LjY4IDI4LjE2cS0yNi42MjQgMzEuNzQ0LTQ2LjA4IDM4LjkxMnQtMjkuNjk2IDcuMTY4bC0zOC45MTIgMC04OS4wODggMC0xMjEuODU2IDAtMTM4LjI0IDAtMTM3LjIxNiAwcS02Ny41ODQgMC0xMjEuMzQ0LTAuNTEydC04Ny41NTItMC41MTJsLTM4LjkxMiAwcS04LjE5MiAwLTE2Ljg5Ni00LjA5NnQtMTcuOTItMTAuNzUyLTE2Ljg5Ni0xNC4zMzYtMTMuODI0LTE0Ljg0OHEtNy4xNjgtOS4yMTYtOS4yMTYtMTYuMzg0dC0wLjUxMi0xMi44IDUuNjMyLTEwLjc1MiA4LjE5Mi0xMi4yODhxNC4wOTYtNi4xNDQgMTMuODI0LTIyLjAxNnQyMC45OTItMzUuMzI4bDI0LjU3Ni0zOC45MTJxMTEuMjY0LTE5LjQ1NiAxOS40NTYtMzIuNzY4dDEzLjgyNC0xOS45NjggMTEuNzc2LTguNzA0IDEzLjMxMi0xLjUzNiAxOC40MzIgMC41MTJsNjYxLjUwNCAwek05MDkuMzEyIDc5NS42NDhxMC03LjE2OC02LjE0NC0xMS43NzZ0LTEzLjMxMi00LjYwOGwtNzQ3LjUyIDBxLTcuMTY4IDAtMTQuMzM2IDQuNjA4dC03LjE2OCAxMS43NzYgNi4xNDQgMTIuMjg4IDEzLjMxMiA1LjEybDc0OC41NDQgMHE3LjE2OCAwIDEzLjgyNC01LjEydDYuNjU2LTEyLjI4OHoiIHAtaWQ9IjE2MTU3Ii8+PC9zdmc+;" vertex="1" parent="J3CXu3NCxWOcpsQ5JQFd-32">
          <mxGeometry x="17.647058823529413" y="7.142857142857143" width="35.714285714285715" height="35.714285714285715" as="geometry" />
        </mxCell>
        <mxCell id="J3CXu3NCxWOcpsQ5JQFd-35" value="" style="shape=image;verticalLabelPosition=bottom;labelBackgroundColor=#ffffff;verticalAlign=top;aspect=fixed;imageAspect=0;image=data:image/svg+xml,PHN2ZyB4bWxucz0iaHR0cDovL3d3dy53My5vcmcvMjAwMC9zdmciIHhtbG5zOnhsaW5rPSJodHRwOi8vd3d3LnczLm9yZy8xOTk5L3hsaW5rIiB0PSIxNjM5NzA3MDM0MTM1IiBjbGFzcz0iaWNvbiIgdmlld0JveD0iMCAwIDEwMjQgMTAyNCIgdmVyc2lvbj0iMS4xIiBwLWlkPSIxNTAyOSIgd2lkdGg9IjI1MCIgaGVpZ2h0PSIyNTAiPjxkZWZzPjxzdHlsZSB0eXBlPSJ0ZXh0L2NzcyIvPjwvZGVmcz48cGF0aCBkPSJNODIwLjQwOTQ0OSA3OTcuMjI4MzQ2cTAgMjUuMTk2ODUtMTAuMDc4NzQgNDYuODY2MTQydC0yNy43MTY1MzUgMzguMjk5MjEzLTQxLjMyMjgzNSAyNi4yMDQ3MjQtNTAuODk3NjM4IDkuNTc0ODAzbC0zNTcuNzk1Mjc2IDBxLTI3LjIxMjU5OCAwLTUwLjg5NzYzOC05LjU3NDgwM3QtNDEuMzIyODM1LTI2LjIwNDcyNC0yNy43MTY1MzUtMzguMjk5MjEzLTEwLjA3ODc0LTQ2Ljg2NjE0MmwwLTY3NS4yNzU1OTFxMC0yNS4xOTY4NSAxMC4wNzg3NC00Ny4zNzAwNzl0MjcuNzE2NTM1LTM4LjgwMzE1IDQxLjMyMjgzNS0yNi4yMDQ3MjQgNTAuODk3NjM4LTkuNTc0ODAzbDM1Ny43OTUyNzYgMHEyNy4yMTI1OTggMCA1MC44OTc2MzggOS41NzQ4MDN0NDEuMzIyODM1IDI2LjIwNDcyNCAyNy43MTY1MzUgMzguODAzMTUgMTAuMDc4NzQgNDcuMzcwMDc5bDAgNjc1LjI3NTU5MXpNNzM4Ljc3MTY1NCAxNzAuMzMwNzA5bC00NTUuNTU5MDU1IDAgMCA1NzcuNTExODExIDQ1NS41NTkwNTUgMCAwLTU3Ny41MTE4MTF6TTUxMC45OTIxMjYgNzc2LjA2Mjk5MnEtMjEuMTY1MzU0IDAtMzYuNzg3NDAyIDE1LjExODExdC0xNS42MjIwNDcgMzcuMjkxMzM5cTAgMjEuMTY1MzU0IDE1LjYyMjA0NyAzNi43ODc0MDJ0MzYuNzg3NDAyIDE1LjYyMjA0N3EyMi4xNzMyMjggMCAzNy4yOTEzMzktMTUuNjIyMDQ3dDE1LjExODExLTM2Ljc4NzQwMnEwLTIyLjE3MzIyOC0xNS4xMTgxMS0zNy4yOTEzMzl0LTM3LjI5MTMzOS0xNS4xMTgxMXpNNTkxLjYyMjA0NyA4NC42NjE0MTdxMC04LjA2Mjk5Mi01LjAzOTM3LTEyLjU5ODQyNXQtMTEuMDg2NjE0LTQuNTM1NDMzbC0xMjggMHEtNS4wMzkzNyAwLTEwLjU4MjY3NyA0LjUzNTQzM3QtNS41NDMzMDcgMTIuNTk4NDI1IDUuMDM5MzcgMTIuNTk4NDI1IDExLjA4NjYxNCA0LjUzNTQzM2wxMjggMHE2LjA0NzI0NCAwIDExLjA4NjYxNC00LjUzNTQzM3Q1LjAzOTM3LTEyLjU5ODQyNXoiIHAtaWQ9IjE1MDMwIi8+PC9zdmc+;" vertex="1" parent="J3CXu3NCxWOcpsQ5JQFd-32">
          <mxGeometry x="105.88235294117646" y="14.285714285714286" width="17.857142857142858" height="17.857142857142858" as="geometry" />
        </mxCell>
        <mxCell id="J3CXu3NCxWOcpsQ5JQFd-36" value="" style="shape=image;verticalLabelPosition=bottom;labelBackgroundColor=#ffffff;verticalAlign=top;aspect=fixed;imageAspect=0;image=data:image/svg+xml,PHN2ZyB4bWxucz0iaHR0cDovL3d3dy53My5vcmcvMjAwMC9zdmciIHhtbG5zOnhsaW5rPSJodHRwOi8vd3d3LnczLm9yZy8xOTk5L3hsaW5rIiB0PSIxNjM5NzIxNzA5OTIwIiBjbGFzcz0iaWNvbiIgdmlld0JveD0iMCAwIDEwMjQgMTAyNCIgdmVyc2lvbj0iMS4xIiBwLWlkPSIyMjgwIiB3aWR0aD0iMjUwIiBoZWlnaHQ9IjI1MCI+PGRlZnM+PHN0eWxlIHR5cGU9InRleHQvY3NzIi8+PC9kZWZzPjxwYXRoIGQ9Ik0zMDMuMzQ3IDIxOS43MTljMzkuOTk5IDAgNzkuOTk4IDAgMTE5Ljk5NyAwIDU4LjgxMyAwIDExNy42MjYgMCAxNzYuNDM5IDAgOC4yNDEgMCAxNi40ODEgMCAyNC43MjMgMCAyMC40NDIgMCAzNy41LTE3LjA1OCAzNy41LTM3LjUgMC00NS40ODMgMC05MC45NjYgMC0xMzYuNDQ5IDAtMC4xMTQgMC0wLjIyOCAwLTAuMzQxLTIxLjMzOSA4LjgzOS00Mi42NzggMTcuNjc4LTY0LjAxNyAyNi41MTcgMjIuNzk5IDIzLjM5OCA0NS41OTkgNDYuNzk3IDY4LjM5NyA3MC4xOTYgNDQuNzcxIDQ1Ljk0OSA4OS41NDIgOTEuODk3IDEzNC4zMTMgMTM3Ljg0NiAzMS4zMDQgMzIuMTI4IDYyLjYwOCA2NC4yNTUgOTMuOTEzIDk2LjM4MyAxLjU3MSAxLjYxMyAzLjE0NCAzLjIyNiA0LjcxNSA0LjgzOSAwLTE3LjY3OCAwLTM1LjM1NSAwLTUzLjAzMy0yNS43NjIgMjMuOTczLTUxLjUyNCA0Ny45NDYtNzcuMjg2IDcxLjkxOS00Ni44NjYgNDMuNjExLTkzLjczMiA4Ny4yMjMtMTQwLjU5OSAxMzAuODM0LTIyLjUzMSAyMC45NjYtNDUuMDYyIDQxLjkzMi02Ny41OTMgNjIuODk3IDIxLjMzOSA4LjgzOSA0Mi42NzggMTcuNjc4IDY0LjAxNyAyNi41MTcgMC00Ni4wMDggMC05Mi4wMTYgMC0xMzguMDIzIDAtMC4yNSAwLTAuNSAwLTAuNzUgMC0yMC40NDItMTcuMDU4LTM3LjUtMzcuNS0zNy41LTQzLjQzMSAwLTg2Ljg2IDAtMTMwLjI5MSAwLTQ4LjYzNiAwLTk3LjI3MiAwLTE0NS45MDggMC0wLjQ0OSAwLTAuODk3IDAtMS4zNDYgMCAxMi41IDEyLjUgMjUgMjUgMzcuNSAzNy41IDAtNDQuMjc1IDAtODguNTUgMC0xMzIuODI2IDAtMTMuMjI1LTcuMTY5LTI1LjctMTguNTczLTMyLjM4LTE0LjYyMS04LjU2NC0zMy40NDYtNS45NzEtNDUuNDQzIDUuODY0LTI0LjAzMiAyMy43MDgtNDguMDY0IDQ3LjQxNS03Mi4wOTcgNzEuMTIzLTQ1LjcwNiA0NS4wODgtOTEuNDEyIDkwLjE3Ni0xMzcuMTE4IDEzNS4yNjQtMjcuNzkzIDI3LjQxOC01NS41ODYgNTQuODM1LTgzLjM3OSA4Mi4yNTItMC4yNzEgMC4yNjgtMC41NDIgMC41MzUtMC44MTMgMC44MDItNy4wMjYgNi45MzEtMTAuOTgzIDE2LjY2OC0xMC45ODMgMjYuNTE3IDAgMTAuNjQzIDQuMzczIDE4LjYxMSAxMC45ODMgMjYuNTE3IDIwLjYwOSAyNC42NDUgNDEuMjE5IDQ5LjI5IDYxLjgyOCA3My45MzUgNDEuMDc2IDQ5LjExOSA4Mi4xNTIgOTguMjM4IDEyMy4yMjggMTQ3LjM1NyAzMC40MTUgMzYuMzcgNjAuODMgNzIuNzQgOTEuMjQ0IDEwOS4xMSAyLjM5OCAyLjg2NyA0Ljc5NSA1LjczNCA3LjE5MyA4LjYwMiA4LjM2NCAxMC4wMDEgMjQuNDc1IDEyLjk0NyAzNi40ODYgOS42NDQgMTYuMDg2LTQuNDI1IDI3LjUzMS0xOS40ODIgMjcuNTMxLTM2LjE2IDAtNDguMjYgMC05Ni41MjEgMC0xNDQuNzggMC0xLjk2MyAwLTMuOTI1IDAtNS44ODgtMTIuNSAxMi41LTI1IDI1LTM3LjUgMzcuNSA0Ni4wNjcgMCA5Mi4xMzMgMCAxMzguMiAwIDM2LjA5NiAwIDcyLjE5MiAwIDEwOC4yODggMCAyMC40NDIgMCAzNy41LTE3LjA1OCAzNy41LTM3LjVzLTE3LjA1OC0zNy41LTM3LjUtMzcuNWMtNDYuMDY2IDAtOTIuMTMzIDAtMTM4LjIgMC0zNi4wOTYgMC03Mi4xOTIgMC0xMDguMjg4IDAtMjAuNDQyIDAtMzcuNSAxNy4wNTgtMzcuNSAzNy41IDAgNDguMjYgMCA5Ni41MjEgMCAxNDQuNzggMCAxLjk2MyAwIDMuOTI1IDAgNS44ODggMjEuMzM5LTguODM5IDQyLjY3OC0xNy42NzggNjQuMDE3LTI2LjUxNy0yMC42MDktMjQuNjQ1LTQxLjIxOS00OS4yOS02MS44MjgtNzMuOTM1LTQxLjA3Ni00OS4xMTktODIuMTUyLTk4LjIzOC0xMjMuMjI4LTE0Ny4zNTctMzAuNDE1LTM2LjM3LTYwLjgzLTcyLjc0LTkxLjI0NC0xMDkuMTEtMi4zOTgtMi44NjctNC43OTUtNS43MzQtNy4xOTMtOC42MDIgMCAxNy42NzggMCAzNS4zNTUgMCA1My4wMzMgMjQuMDMyLTIzLjcwOCA0OC4wNjQtNDcuNDE1IDcyLjA5Ny03MS4xMjIgNDUuNzA2LTQ1LjA4OSA5MS40MTItOTAuMTc3IDEzNy4xMTgtMTM1LjI2NSAyNy43OTMtMjcuNDE3IDU1LjU4Ni01NC44MzQgODMuMzc5LTgyLjI1MiAwLjI3MS0wLjI2NyAwLjU0Mi0wLjUzNCAwLjgxMy0wLjgwMS0yMS4zMzktOC44MzktNDIuNjc4LTE3LjY3OC02NC4wMTctMjYuNTE3IDAgNDQuMjc1IDAgODguNTUgMCAxMzIuODI2IDAgMjAuNDQyIDE3LjA1OCAzNy41IDM3LjUgMzcuNSA0My40MyAwIDg2Ljg2MSAwIDEzMC4yOTEgMCA0OC42MzYgMCA5Ny4yNzEgMCAxNDUuOTA4IDAgMC40NDggMCAwLjg5NiAwIDEuMzQ2IDAtMTIuNS0xMi41LTI1LTI1LTM3LjUtMzcuNSAwIDQ2LjAwNyAwIDkyLjAxNSAwIDEzOC4wMjMgMCAwLjI1IDAgMC41IDAgMC43NSAwIDEzLjIyNSA3LjE2OSAyNS43IDE4LjU3MyAzMi4zOCAxNC45NDIgOC43NTQgMzMuMDU3IDUuNjYzIDQ1LjQ0My01Ljg2MyAyNS43NjItMjMuOTczIDUxLjUyNC00Ny45NDYgNzcuMjg2LTcxLjkxOSA0Ni44NjYtNDMuNjExIDkzLjczMi04Ny4yMjMgMTQwLjU5OS0xMzAuODM0IDIyLjUzMS0yMC45NjYgNDUuMDYyLTQxLjkzMiA2Ny41OTMtNjIuODk4IDE1LjEwNi0xNC4wNTcgMTMuODY5LTM4Ljc5OSAwLTUzLjAzMy0yMi43OTktMjMuMzk4LTQ1LjU5OC00Ni43OTctNjguMzk3LTcwLjE5Ni00NC43NzEtNDUuOTQ5LTg5LjU0Mi05MS44OTctMTM0LjMxMy0xMzcuODQ2LTMxLjMwNC0zMi4xMjgtNjIuNjA4LTY0LjI1NS05My45MTMtOTYuMzgzLTEuNTcxLTEuNjEzLTMuMTQ0LTMuMjI2LTQuNzE1LTQuODM5LTkuMjk5LTkuNTQzLTIzLjcxMS0xMy4xNTgtMzYuNDg1LTkuNjQ0LTE2LjA4NyA0LjQyNS0yNy41MzEgMTkuNDgzLTI3LjUzMSAzNi4xNjEgMCA0NS40ODMgMCA5MC45NjYgMCAxMzYuNDQ5IDAgMC4xMTQgMCAwLjIyOCAwIDAuMzQxIDEyLjUtMTIuNSAyNS0yNSAzNy41LTM3LjUtMzkuOTk5IDAtNzkuOTk4IDAtMTE5Ljk5NyAwLTU4LjgxMyAwLTExNy42MjYgMC0xNzYuNDM5IDAtOC4yNDEgMC0xNi40ODIgMC0yNC43MjMgMC0yMC40NDIgMC0zNy41IDE3LjA1OC0zNy41IDM3LjVTMjgyLjkwNSAyMTkuNzE5IDMwMy4zNDcgMjE5LjcxOUwzMDMuMzQ3IDIxOS43MTl6IiBmaWxsPSIjNTE1MTUxIiBwLWlkPSIyMjgxIi8+PC9zdmc+;rotation=0;" vertex="1" parent="J3CXu3NCxWOcpsQ5JQFd-32">
          <mxGeometry x="70.58823529411765" y="14.285714285714286" width="21.42857142857143" height="21.42857142857143" as="geometry" />
        </mxCell>
        <mxCell id="J3CXu3NCxWOcpsQ5JQFd-37" value="" style="group" vertex="1" connectable="0" parent="1">
          <mxGeometry x="530" y="60" width="150" height="50" as="geometry" />
        </mxCell>
        <mxCell id="J3CXu3NCxWOcpsQ5JQFd-38" value="" style="ellipse;whiteSpace=wrap;html=1;" vertex="1" parent="J3CXu3NCxWOcpsQ5JQFd-37">
          <mxGeometry width="150" height="50" as="geometry" />
        </mxCell>
        <mxCell id="J3CXu3NCxWOcpsQ5JQFd-39" value="" style="shape=image;verticalLabelPosition=bottom;labelBackgroundColor=#ffffff;verticalAlign=top;aspect=fixed;imageAspect=0;image=data:image/svg+xml,PHN2ZyB4bWxucz0iaHR0cDovL3d3dy53My5vcmcvMjAwMC9zdmciIHhtbG5zOnhsaW5rPSJodHRwOi8vd3d3LnczLm9yZy8xOTk5L3hsaW5rIiB0PSIxNjM5NzA3MDQ4NTEzIiBjbGFzcz0iaWNvbiIgdmlld0JveD0iMCAwIDEwMjQgMTAyNCIgdmVyc2lvbj0iMS4xIiBwLWlkPSIxNjE1NiIgd2lkdGg9IjI1MCIgaGVpZ2h0PSIyNTAiPjxkZWZzPjxzdHlsZSB0eXBlPSJ0ZXh0L2NzcyIvPjwvZGVmcz48cGF0aCBkPSJNODc2LjU0NCA1NDcuODRsMy4wNzIgMC03MzEuMTM2IDAgMC00MzQuMTc2cTAtNDMuMDA4IDIxLjUwNC02Ni4wNDh0NjUuNTM2LTIzLjA0bDU1OC4wOCAwcTQ2LjA4IDAgNjUuMDI0IDI2LjExMnQxNy45MiA2Ny4wNzJsMCA0MzAuMDh6TTgwMC43NjggOTYuMjU2bC01NzkuNTg0IDAgMCAzMjMuNTg0IDU3OS41ODQgMS4wMjQgMC0zMjQuNjA4ek01NjMuMiA0ODQuMzUycTAtMTQuMzM2LTE5LjQ1Ni0xNi4zODRsLTYyLjQ2NCAwcS0xOS40NTYgMC0xOS40NTYgMTYuMzg0IDAgNS4xMiA1LjEyIDEwLjI0dDEzLjMxMiA2LjE0NGw2MS40NC0xLjAyNHE5LjIxNiAwIDE1LjM2LTUuMTJ0Ni4xNDQtMTAuMjR6TTg1OS4xMzYgNjA2LjIwOHExMS4yNjQgMCAxNS4zNiA3LjE2OHQxMi4yODggMjAuNDhxNC4wOTYgNy4xNjggMTUuMzYgMjUuNnQyNC4wNjQgMzkuNDI0IDI0LjA2NCAzOS40MjQgMTUuMzYgMjQuNTc2cTguMTkyIDEzLjMxMiAxMy44MjQgMjUuMDg4dC03LjY4IDI4LjE2cS0yNi42MjQgMzEuNzQ0LTQ2LjA4IDM4LjkxMnQtMjkuNjk2IDcuMTY4bC0zOC45MTIgMC04OS4wODggMC0xMjEuODU2IDAtMTM4LjI0IDAtMTM3LjIxNiAwcS02Ny41ODQgMC0xMjEuMzQ0LTAuNTEydC04Ny41NTItMC41MTJsLTM4LjkxMiAwcS04LjE5MiAwLTE2Ljg5Ni00LjA5NnQtMTcuOTItMTAuNzUyLTE2Ljg5Ni0xNC4zMzYtMTMuODI0LTE0Ljg0OHEtNy4xNjgtOS4yMTYtOS4yMTYtMTYuMzg0dC0wLjUxMi0xMi44IDUuNjMyLTEwLjc1MiA4LjE5Mi0xMi4yODhxNC4wOTYtNi4xNDQgMTMuODI0LTIyLjAxNnQyMC45OTItMzUuMzI4bDI0LjU3Ni0zOC45MTJxMTEuMjY0LTE5LjQ1NiAxOS40NTYtMzIuNzY4dDEzLjgyNC0xOS45NjggMTEuNzc2LTguNzA0IDEzLjMxMi0xLjUzNiAxOC40MzIgMC41MTJsNjYxLjUwNCAwek05MDkuMzEyIDc5NS42NDhxMC03LjE2OC02LjE0NC0xMS43NzZ0LTEzLjMxMi00LjYwOGwtNzQ3LjUyIDBxLTcuMTY4IDAtMTQuMzM2IDQuNjA4dC03LjE2OCAxMS43NzYgNi4xNDQgMTIuMjg4IDEzLjMxMiA1LjEybDc0OC41NDQgMHE3LjE2OCAwIDEzLjgyNC01LjEydDYuNjU2LTEyLjI4OHoiIHAtaWQ9IjE2MTU3Ii8+PC9zdmc+;" vertex="1" parent="J3CXu3NCxWOcpsQ5JQFd-37">
          <mxGeometry x="17.647058823529413" y="7.142857142857143" width="35.714285714285715" height="35.714285714285715" as="geometry" />
        </mxCell>
        <mxCell id="J3CXu3NCxWOcpsQ5JQFd-40" value="" style="shape=image;verticalLabelPosition=bottom;labelBackgroundColor=#ffffff;verticalAlign=top;aspect=fixed;imageAspect=0;image=data:image/svg+xml,PHN2ZyB4bWxucz0iaHR0cDovL3d3dy53My5vcmcvMjAwMC9zdmciIHhtbG5zOnhsaW5rPSJodHRwOi8vd3d3LnczLm9yZy8xOTk5L3hsaW5rIiB0PSIxNjM5NzA3MDM0MTM1IiBjbGFzcz0iaWNvbiIgdmlld0JveD0iMCAwIDEwMjQgMTAyNCIgdmVyc2lvbj0iMS4xIiBwLWlkPSIxNTAyOSIgd2lkdGg9IjI1MCIgaGVpZ2h0PSIyNTAiPjxkZWZzPjxzdHlsZSB0eXBlPSJ0ZXh0L2NzcyIvPjwvZGVmcz48cGF0aCBkPSJNODIwLjQwOTQ0OSA3OTcuMjI4MzQ2cTAgMjUuMTk2ODUtMTAuMDc4NzQgNDYuODY2MTQydC0yNy43MTY1MzUgMzguMjk5MjEzLTQxLjMyMjgzNSAyNi4yMDQ3MjQtNTAuODk3NjM4IDkuNTc0ODAzbC0zNTcuNzk1Mjc2IDBxLTI3LjIxMjU5OCAwLTUwLjg5NzYzOC05LjU3NDgwM3QtNDEuMzIyODM1LTI2LjIwNDcyNC0yNy43MTY1MzUtMzguMjk5MjEzLTEwLjA3ODc0LTQ2Ljg2NjE0MmwwLTY3NS4yNzU1OTFxMC0yNS4xOTY4NSAxMC4wNzg3NC00Ny4zNzAwNzl0MjcuNzE2NTM1LTM4LjgwMzE1IDQxLjMyMjgzNS0yNi4yMDQ3MjQgNTAuODk3NjM4LTkuNTc0ODAzbDM1Ny43OTUyNzYgMHEyNy4yMTI1OTggMCA1MC44OTc2MzggOS41NzQ4MDN0NDEuMzIyODM1IDI2LjIwNDcyNCAyNy43MTY1MzUgMzguODAzMTUgMTAuMDc4NzQgNDcuMzcwMDc5bDAgNjc1LjI3NTU5MXpNNzM4Ljc3MTY1NCAxNzAuMzMwNzA5bC00NTUuNTU5MDU1IDAgMCA1NzcuNTExODExIDQ1NS41NTkwNTUgMCAwLTU3Ny41MTE4MTF6TTUxMC45OTIxMjYgNzc2LjA2Mjk5MnEtMjEuMTY1MzU0IDAtMzYuNzg3NDAyIDE1LjExODExdC0xNS42MjIwNDcgMzcuMjkxMzM5cTAgMjEuMTY1MzU0IDE1LjYyMjA0NyAzNi43ODc0MDJ0MzYuNzg3NDAyIDE1LjYyMjA0N3EyMi4xNzMyMjggMCAzNy4yOTEzMzktMTUuNjIyMDQ3dDE1LjExODExLTM2Ljc4NzQwMnEwLTIyLjE3MzIyOC0xNS4xMTgxMS0zNy4yOTEzMzl0LTM3LjI5MTMzOS0xNS4xMTgxMXpNNTkxLjYyMjA0NyA4NC42NjE0MTdxMC04LjA2Mjk5Mi01LjAzOTM3LTEyLjU5ODQyNXQtMTEuMDg2NjE0LTQuNTM1NDMzbC0xMjggMHEtNS4wMzkzNyAwLTEwLjU4MjY3NyA0LjUzNTQzM3QtNS41NDMzMDcgMTIuNTk4NDI1IDUuMDM5MzcgMTIuNTk4NDI1IDExLjA4NjYxNCA0LjUzNTQzM2wxMjggMHE2LjA0NzI0NCAwIDExLjA4NjYxNC00LjUzNTQzM3Q1LjAzOTM3LTEyLjU5ODQyNXoiIHAtaWQ9IjE1MDMwIi8+PC9zdmc+;" vertex="1" parent="J3CXu3NCxWOcpsQ5JQFd-37">
          <mxGeometry x="105.88235294117646" y="14.285714285714286" width="17.857142857142858" height="17.857142857142858" as="geometry" />
        </mxCell>
        <mxCell id="J3CXu3NCxWOcpsQ5JQFd-41" value="" style="shape=image;verticalLabelPosition=bottom;labelBackgroundColor=#ffffff;verticalAlign=top;aspect=fixed;imageAspect=0;image=data:image/svg+xml,PHN2ZyB4bWxucz0iaHR0cDovL3d3dy53My5vcmcvMjAwMC9zdmciIHhtbG5zOnhsaW5rPSJodHRwOi8vd3d3LnczLm9yZy8xOTk5L3hsaW5rIiB0PSIxNjM5NzIxNzA5OTIwIiBjbGFzcz0iaWNvbiIgdmlld0JveD0iMCAwIDEwMjQgMTAyNCIgdmVyc2lvbj0iMS4xIiBwLWlkPSIyMjgwIiB3aWR0aD0iMjUwIiBoZWlnaHQ9IjI1MCI+PGRlZnM+PHN0eWxlIHR5cGU9InRleHQvY3NzIi8+PC9kZWZzPjxwYXRoIGQ9Ik0zMDMuMzQ3IDIxOS43MTljMzkuOTk5IDAgNzkuOTk4IDAgMTE5Ljk5NyAwIDU4LjgxMyAwIDExNy42MjYgMCAxNzYuNDM5IDAgOC4yNDEgMCAxNi40ODEgMCAyNC43MjMgMCAyMC40NDIgMCAzNy41LTE3LjA1OCAzNy41LTM3LjUgMC00NS40ODMgMC05MC45NjYgMC0xMzYuNDQ5IDAtMC4xMTQgMC0wLjIyOCAwLTAuMzQxLTIxLjMzOSA4LjgzOS00Mi42NzggMTcuNjc4LTY0LjAxNyAyNi41MTcgMjIuNzk5IDIzLjM5OCA0NS41OTkgNDYuNzk3IDY4LjM5NyA3MC4xOTYgNDQuNzcxIDQ1Ljk0OSA4OS41NDIgOTEuODk3IDEzNC4zMTMgMTM3Ljg0NiAzMS4zMDQgMzIuMTI4IDYyLjYwOCA2NC4yNTUgOTMuOTEzIDk2LjM4MyAxLjU3MSAxLjYxMyAzLjE0NCAzLjIyNiA0LjcxNSA0LjgzOSAwLTE3LjY3OCAwLTM1LjM1NSAwLTUzLjAzMy0yNS43NjIgMjMuOTczLTUxLjUyNCA0Ny45NDYtNzcuMjg2IDcxLjkxOS00Ni44NjYgNDMuNjExLTkzLjczMiA4Ny4yMjMtMTQwLjU5OSAxMzAuODM0LTIyLjUzMSAyMC45NjYtNDUuMDYyIDQxLjkzMi02Ny41OTMgNjIuODk3IDIxLjMzOSA4LjgzOSA0Mi42NzggMTcuNjc4IDY0LjAxNyAyNi41MTcgMC00Ni4wMDggMC05Mi4wMTYgMC0xMzguMDIzIDAtMC4yNSAwLTAuNSAwLTAuNzUgMC0yMC40NDItMTcuMDU4LTM3LjUtMzcuNS0zNy41LTQzLjQzMSAwLTg2Ljg2IDAtMTMwLjI5MSAwLTQ4LjYzNiAwLTk3LjI3MiAwLTE0NS45MDggMC0wLjQ0OSAwLTAuODk3IDAtMS4zNDYgMCAxMi41IDEyLjUgMjUgMjUgMzcuNSAzNy41IDAtNDQuMjc1IDAtODguNTUgMC0xMzIuODI2IDAtMTMuMjI1LTcuMTY5LTI1LjctMTguNTczLTMyLjM4LTE0LjYyMS04LjU2NC0zMy40NDYtNS45NzEtNDUuNDQzIDUuODY0LTI0LjAzMiAyMy43MDgtNDguMDY0IDQ3LjQxNS03Mi4wOTcgNzEuMTIzLTQ1LjcwNiA0NS4wODgtOTEuNDEyIDkwLjE3Ni0xMzcuMTE4IDEzNS4yNjQtMjcuNzkzIDI3LjQxOC01NS41ODYgNTQuODM1LTgzLjM3OSA4Mi4yNTItMC4yNzEgMC4yNjgtMC41NDIgMC41MzUtMC44MTMgMC44MDItNy4wMjYgNi45MzEtMTAuOTgzIDE2LjY2OC0xMC45ODMgMjYuNTE3IDAgMTAuNjQzIDQuMzczIDE4LjYxMSAxMC45ODMgMjYuNTE3IDIwLjYwOSAyNC42NDUgNDEuMjE5IDQ5LjI5IDYxLjgyOCA3My45MzUgNDEuMDc2IDQ5LjExOSA4Mi4xNTIgOTguMjM4IDEyMy4yMjggMTQ3LjM1NyAzMC40MTUgMzYuMzcgNjAuODMgNzIuNzQgOTEuMjQ0IDEwOS4xMSAyLjM5OCAyLjg2NyA0Ljc5NSA1LjczNCA3LjE5MyA4LjYwMiA4LjM2NCAxMC4wMDEgMjQuNDc1IDEyLjk0NyAzNi40ODYgOS42NDQgMTYuMDg2LTQuNDI1IDI3LjUzMS0xOS40ODIgMjcuNTMxLTM2LjE2IDAtNDguMjYgMC05Ni41MjEgMC0xNDQuNzggMC0xLjk2MyAwLTMuOTI1IDAtNS44ODgtMTIuNSAxMi41LTI1IDI1LTM3LjUgMzcuNSA0Ni4wNjcgMCA5Mi4xMzMgMCAxMzguMiAwIDM2LjA5NiAwIDcyLjE5MiAwIDEwOC4yODggMCAyMC40NDIgMCAzNy41LTE3LjA1OCAzNy41LTM3LjVzLTE3LjA1OC0zNy41LTM3LjUtMzcuNWMtNDYuMDY2IDAtOTIuMTMzIDAtMTM4LjIgMC0zNi4wOTYgMC03Mi4xOTIgMC0xMDguMjg4IDAtMjAuNDQyIDAtMzcuNSAxNy4wNTgtMzcuNSAzNy41IDAgNDguMjYgMCA5Ni41MjEgMCAxNDQuNzggMCAxLjk2MyAwIDMuOTI1IDAgNS44ODggMjEuMzM5LTguODM5IDQyLjY3OC0xNy42NzggNjQuMDE3LTI2LjUxNy0yMC42MDktMjQuNjQ1LTQxLjIxOS00OS4yOS02MS44MjgtNzMuOTM1LTQxLjA3Ni00OS4xMTktODIuMTUyLTk4LjIzOC0xMjMuMjI4LTE0Ny4zNTctMzAuNDE1LTM2LjM3LTYwLjgzLTcyLjc0LTkxLjI0NC0xMDkuMTEtMi4zOTgtMi44NjctNC43OTUtNS43MzQtNy4xOTMtOC42MDIgMCAxNy42NzggMCAzNS4zNTUgMCA1My4wMzMgMjQuMDMyLTIzLjcwOCA0OC4wNjQtNDcuNDE1IDcyLjA5Ny03MS4xMjIgNDUuNzA2LTQ1LjA4OSA5MS40MTItOTAuMTc3IDEzNy4xMTgtMTM1LjI2NSAyNy43OTMtMjcuNDE3IDU1LjU4Ni01NC44MzQgODMuMzc5LTgyLjI1MiAwLjI3MS0wLjI2NyAwLjU0Mi0wLjUzNCAwLjgxMy0wLjgwMS0yMS4zMzktOC44MzktNDIuNjc4LTE3LjY3OC02NC4wMTctMjYuNTE3IDAgNDQuMjc1IDAgODguNTUgMCAxMzIuODI2IDAgMjAuNDQyIDE3LjA1OCAzNy41IDM3LjUgMzcuNSA0My40MyAwIDg2Ljg2MSAwIDEzMC4yOTEgMCA0OC42MzYgMCA5Ny4yNzEgMCAxNDUuOTA4IDAgMC40NDggMCAwLjg5NiAwIDEuMzQ2IDAtMTIuNS0xMi41LTI1LTI1LTM3LjUtMzcuNSAwIDQ2LjAwNyAwIDkyLjAxNSAwIDEzOC4wMjMgMCAwLjI1IDAgMC41IDAgMC43NSAwIDEzLjIyNSA3LjE2OSAyNS43IDE4LjU3MyAzMi4zOCAxNC45NDIgOC43NTQgMzMuMDU3IDUuNjYzIDQ1LjQ0My01Ljg2MyAyNS43NjItMjMuOTczIDUxLjUyNC00Ny45NDYgNzcuMjg2LTcxLjkxOSA0Ni44NjYtNDMuNjExIDkzLjczMi04Ny4yMjMgMTQwLjU5OS0xMzAuODM0IDIyLjUzMS0yMC45NjYgNDUuMDYyLTQxLjkzMiA2Ny41OTMtNjIuODk4IDE1LjEwNi0xNC4wNTcgMTMuODY5LTM4Ljc5OSAwLTUzLjAzMy0yMi43OTktMjMuMzk4LTQ1LjU5OC00Ni43OTctNjguMzk3LTcwLjE5Ni00NC43NzEtNDUuOTQ5LTg5LjU0Mi05MS44OTctMTM0LjMxMy0xMzcuODQ2LTMxLjMwNC0zMi4xMjgtNjIuNjA4LTY0LjI1NS05My45MTMtOTYuMzgzLTEuNTcxLTEuNjEzLTMuMTQ0LTMuMjI2LTQuNzE1LTQuODM5LTkuMjk5LTkuNTQzLTIzLjcxMS0xMy4xNTgtMzYuNDg1LTkuNjQ0LTE2LjA4NyA0LjQyNS0yNy41MzEgMTkuNDgzLTI3LjUzMSAzNi4xNjEgMCA0NS40ODMgMCA5MC45NjYgMCAxMzYuNDQ5IDAgMC4xMTQgMCAwLjIyOCAwIDAuMzQxIDEyLjUtMTIuNSAyNS0yNSAzNy41LTM3LjUtMzkuOTk5IDAtNzkuOTk4IDAtMTE5Ljk5NyAwLTU4LjgxMyAwLTExNy42MjYgMC0xNzYuNDM5IDAtOC4yNDEgMC0xNi40ODIgMC0yNC43MjMgMC0yMC40NDIgMC0zNy41IDE3LjA1OC0zNy41IDM3LjVTMjgyLjkwNSAyMTkuNzE5IDMwMy4zNDcgMjE5LjcxOUwzMDMuMzQ3IDIxOS43MTl6IiBmaWxsPSIjNTE1MTUxIiBwLWlkPSIyMjgxIi8+PC9zdmc+;rotation=0;" vertex="1" parent="J3CXu3NCxWOcpsQ5JQFd-37">
          <mxGeometry x="70.58823529411765" y="14.285714285714286" width="21.42857142857143" height="21.42857142857143" as="geometry" />
        </mxCell>
      </root>
    </mxGraphModel>
  </diagram>
</mxfile>
